<?xml version="1.0" encoding="UTF-8"?>
<svg version="1.1" xmlns="http://www.w3.org/2000/svg" width="1024" height="1024">
<path d="M0 0 C337.92 0 675.84 0 1024 0 C1024 337.92 1024 675.84 1024 1024 C686.08 1024 348.16 1024 0 1024 C0 686.08 0 348.16 0 0 Z " fill="#070706" transform="translate(0,0)"/>
<path d="M0 0 C10.13201445 6.8377256 18.21702051 16.2287743 21.109375 28.3046875 C22.90038533 43.19143393 20.31684872 55.34045774 11.109375 67.3046875 C7.43405519 71.30212994 3.56884069 75.08739597 -0.328125 78.8671875 C-2.35155628 80.84370422 -4.37045099 82.8247713 -6.38671875 84.80859375 C-6.87057541 85.28363342 -7.35443207 85.7586731 -7.85295105 86.24810791 C-11.21965259 89.57683981 -14.36641518 93.03696734 -17.43920898 96.63549805 C-26.13282993 106.63352772 -37.71209479 115.20496635 -51.14453125 116.65625 C-64.26365698 117.20348027 -74.98088621 112.0798981 -84.82421875 103.6484375 C-89.94447298 98.80346576 -95.0809154 93.34442398 -95.390625 85.9921875 C-94.890625 82.3046875 -94.890625 82.3046875 -93.890625 80.3046875 C-90.6020348 78.6603924 -87.43077005 78.72144521 -83.890625 79.3046875 C-79.62654265 81.3913661 -76.80889154 84.41182367 -73.578125 87.8046875 C-67.27959576 94.19801066 -61.4986852 96.71346616 -52.54296875 96.8359375 C-43.22188218 94.96897465 -37.72626145 88.59597499 -31.390625 81.9921875 C-25.41075558 75.83643957 -19.42307001 69.87215561 -12.890625 64.3046875 C-2.6686808 54.99332407 -2.6686808 54.99332407 2.3828125 42.6171875 C2.70480162 32.11538854 0.35321153 25.48223923 -6.828125 17.8046875 C-11.67919825 12.94365312 -16.92778493 11.99628058 -23.640625 11.8671875 C-36.32519559 12.1200803 -43.07225026 18.87437478 -51.890625 27.3046875 C-53.78801393 28.9438519 -55.70495523 30.55621702 -57.62890625 32.1640625 C-59.56718858 33.99856806 -61.22161427 35.84456712 -62.93359375 37.8828125 C-71.45539428 47.71291886 -71.45539428 47.71291886 -76.08886719 48.83886719 C-80.83044169 49.14378501 -85.28731223 48.39274325 -89.890625 47.3046875 C-90.75266396 41.8451074 -88.73651955 38.46867994 -85.89208984 34.01660156 C-82.54381949 29.47981368 -78.66839554 25.52769417 -74.64282227 21.59033203 C-73.20997385 20.18639814 -71.79669972 18.76477637 -70.38476562 17.33984375 C-51.48022368 -1.39438701 -25.5547599 -14.98752135 0 0 Z " fill="#3644FB" transform="translate(305.890625,405.6953125)"/>
<path d="M0 0 C8.81493123 5.37140926 18.4907568 12.9109258 22 23 C22.60050463 28.90496215 22.60050463 28.90496215 20.9375 31.9375 C17.8132757 33.65078429 15.50010732 33.41526697 12 33 C8.27244444 31.05856481 5.60889385 28.637526 2.75 25.625 C-3.06312427 19.61767336 -9.983712 15.37157689 -18.375 14.75 C-32.3058553 15.71074864 -46.13505905 34.43723353 -55.0625 44.4375 C-61.12017762 51.58975798 -64.53127882 57.84247609 -64.31640625 67.33984375 C-63.46009716 74.53918317 -60.59857786 80.3572769 -55 85 C-54.175 85.721875 -53.35 86.44375 -52.5 87.1875 C-45.66270941 92.14453568 -38.08269175 91.66492229 -30 91 C-21.37836142 88.91457119 -14.31714064 80.79086289 -8.8125 74.265625 C0.33430273 63.74160107 0.33430273 63.74160107 6.41796875 63.29296875 C16.5266044 63.5266044 16.5266044 63.5266044 19 66 C19.69540837 72.41321054 15.79451959 76.20802398 12 81 C9.10004081 84.43334454 6.08187557 87.72987723 3 91 C2.37480469 91.70125 1.74960938 92.4025 1.10546875 93.125 C-8.08206317 103.0281923 -20.37528647 109.72854185 -33.83984375 111.33984375 C-46.69304287 111.80086237 -58.20262854 107.32643875 -68.1328125 99.26953125 C-77.74547298 90.17703638 -82.93489808 77.11381948 -83.3125 63.9375 C-83.11757662 47.80217544 -73.67876319 34.88869092 -62.83349609 23.87304688 C-60.82055162 21.8166807 -58.84281813 19.72914813 -56.86328125 17.640625 C-41.47295053 1.60021836 -22.70911756 -12.01451078 0 0 Z " fill="#2A53FB" transform="translate(234,463)"/>
<path d="M0 0 C3.2022503 3.56635456 4.30210353 7.60824797 5.5625 12.125 C5.87477539 13.18847656 5.87477539 13.18847656 6.19335938 14.2734375 C14.38800049 42.839083 10.32680117 72.36037772 -3.75 98.375 C-8.09880102 105.58929007 -13.33700577 111.80165624 -19 118 C-19.65613281 118.73863281 -20.31226563 119.47726562 -20.98828125 120.23828125 C-36.31046071 136.6103745 -59.72358155 147.92206684 -82.1652832 149.17700195 C-112.05815347 149.71807864 -112.05815347 149.71807864 -126 145 C-126.6379248 144.78617676 -127.27584961 144.57235352 -127.93310547 144.35205078 C-138.65075456 140.69849089 -138.65075456 140.69849089 -140 138 C-139.35675781 138.04640625 -138.71351563 138.0928125 -138.05078125 138.140625 C-128.48846122 138.52257216 -119.93281468 136.49730325 -111.82421875 131.36328125 C-106.37187432 128.26213155 -101.56170027 128.55195125 -95.4375 128.875 C-72.31380632 129.4595828 -52.50511306 123.38622713 -35.34765625 107.31640625 C-22.01833999 94.1645185 -13.28203224 78.55882976 -10 60 C-9.8040625 58.9171875 -9.608125 57.834375 -9.40625 56.71875 C-9.00410183 53.03754756 -9.06175122 49.62003785 -9.21728516 45.93286133 C-9.55524651 36.85383291 -8.82883721 30.80664638 -4.46484375 22.74609375 C-0.74193598 15.76688266 -0.55107027 7.7584893 0 0 Z " fill="#6912F9" transform="translate(334,442)"/>
<path d="M0 0 C0 0.33 0 0.66 0 1 C-1.30710937 1.03867187 -1.30710937 1.03867187 -2.640625 1.078125 C-11.95945374 1.52187875 -21.19961821 2.50358343 -28.93359375 8.13671875 C-35.45260501 11.95434978 -44.29526565 10.13305632 -51.53515625 9.84375 C-69.90486867 9.39976904 -86.44799388 16.70032448 -100 29 C-100.84304687 29.75023437 -101.68609375 30.50046875 -102.5546875 31.2734375 C-116.30622659 44.18901677 -125.34681265 62.65217205 -126.10546875 81.63964844 C-126.13967523 83.54008171 -126.17161235 85.44055703 -126.20141602 87.34106445 C-126.34993962 96.23382198 -126.56938004 102.36064305 -132.21484375 109.640625 C-137.80598972 117.03023586 -138.68627062 126.01165328 -139 135 C-141.18779183 132.81220817 -141.49404498 131.8173435 -142.25390625 128.89453125 C-142.46853516 128.07533203 -142.68316406 127.25613281 -142.90429688 126.41210938 C-143.12150391 125.55423828 -143.33871094 124.69636719 -143.5625 123.8125 C-143.78357422 122.97396484 -144.00464844 122.13542969 -144.23242188 121.27148438 C-151.44395404 93.36220129 -147.01266334 64.10978924 -132.9765625 39.16015625 C-116.59607213 12.97079516 -91.83206219 -3.01006074 -62 -10 C-41.75028113 -13.66893861 -17.46819554 -11.49643582 0 0 Z " fill="#039BF8" transform="translate(284,392)"/>
<path d="M0 0 C6.56754469 2.91032373 11.04922513 8.35288055 14.29296875 14.62109375 C15.79268519 18.8813502 16.08007755 22.29048692 15.9921875 26.7578125 C15.98131104 27.50732178 15.97043457 28.25683105 15.95922852 29.02905273 C15.70197379 37.96889725 13.79193317 44.15900851 7.48046875 50.71875 C1.53829097 56.0256006 -4.3020007 55.73034303 -11.98046875 55.78125 C-17.42030051 55.14420885 -20.54349083 53.22213417 -24.3828125 49.3828125 C-24.7128125 57.9628125 -25.0428125 66.5428125 -25.3828125 75.3828125 C-29.6728125 75.3828125 -33.9628125 75.3828125 -38.3828125 75.3828125 C-38.3828125 50.6328125 -38.3828125 25.8828125 -38.3828125 0.3828125 C-34.0928125 0.3828125 -29.8028125 0.3828125 -25.3828125 0.3828125 C-25.0528125 2.3628125 -24.7228125 4.3428125 -24.3828125 6.3828125 C-23.6403125 5.5990625 -22.8978125 4.8153125 -22.1328125 4.0078125 C-15.96291356 -1.88163649 -8.13455732 -2.1069837 0 0 Z " fill="#F9F9F9" transform="translate(683.3828125,474.6171875)"/>
<path d="M0 0 C4.70407054 3.2478206 8.08466186 6.47931947 10 12 C10.1875 15.875 10.1875 15.875 10 19 C5.71 19 1.42 19 -3 19 C-3.66 17.02 -4.32 15.04 -5 13 C-8.18896521 10.01677449 -10.94647438 9.07951137 -15.3125 8.75 C-19.33763189 9.0228903 -21.60309707 9.86706095 -25 12 C-27.14291019 15.21436529 -27.30025791 17.17426609 -27.4609375 20.96484375 C-26.74071192 24.14482277 -25.65714689 25.07148951 -23 27 C-19.61934596 28.11189817 -16.17440028 28.80405982 -12.6875 29.5 C-3.4318763 31.37047448 3.63151323 33.53977265 10 41 C13.17298058 46.28830097 12.77476483 52.84062964 11.34765625 58.66015625 C8.71563692 66.14955032 4.80868951 70.02232023 -2.14453125 73.6328125 C-6.51046612 75.43116324 -10.70309127 75.49546413 -15.375 75.4375 C-16.21699951 75.43065186 -17.05899902 75.42380371 -17.92651367 75.41674805 C-24.01055114 75.25905093 -28.89963002 74.52746676 -34 71 C-34.57878906 70.63777344 -35.15757812 70.27554688 -35.75390625 69.90234375 C-40.05076267 66.84795183 -41.91641926 63.01868975 -43 58 C-43 56.35 -43 54.7 -43 53 C-38.71 53 -34.42 53 -30 53 C-29.443125 54.3921875 -29.443125 54.3921875 -28.875 55.8125 C-26.55922082 59.74932461 -25.33787681 60.60568245 -21 62 C-14.74221933 62.6704765 -9.34167366 62.69808177 -4 59 C-1.67250655 55.50875983 -1.49700684 54.10777749 -2 50 C-5.10990486 45.85607136 -8.70740812 45.00532716 -13.5625 44 C-15.0008689 43.66516926 -16.43837401 43.32660662 -17.875 42.984375 C-18.57753906 42.81873047 -19.28007813 42.65308594 -20.00390625 42.48242188 C-28.80807768 40.35460354 -35.02969646 37.90188977 -40 30 C-42.76934035 23.25725827 -43.05688361 17.01235149 -40.3125 10.3125 C-37.48296716 4.57456233 -33.57773269 0.48448901 -27.703125 -2.2734375 C-19.02281189 -4.60658524 -7.89756576 -4.38753653 0 0 Z " fill="#FBFBFB" transform="translate(625,455)"/>
<path d="M0 0 C6.55323286 3.0718279 10.89848199 8.09191181 13.5 14.8125 C14.5625 19.5 14.5625 19.5 14.5625 30.5 C1.3625 30.5 -11.8375 30.5 -25.4375 30.5 C-22.15701981 39.27884997 -22.15701981 39.27884997 -15.4375 43.5 C-9.7433261 44.37917227 -5.34426784 43.6893991 -0.4375 40.5 C0.0575 39.51 0.0575 39.51 0.5625 38.5 C4.8525 38.5 9.1425 38.5 13.5625 38.5 C10.98257561 46.23977318 7.41545983 49.32863315 0.5625 53.5 C-6.28915136 55.78388379 -17.33282473 56.02502235 -24.0625 53 C-29.79493657 49.3415461 -34.95274371 43.57282401 -36.9921875 37.015625 C-38.77179958 26.96237783 -38.45281054 18.00596814 -33.2890625 9 C-30.53476017 5.28111078 -27.45242379 2.75941055 -23.4375 0.5 C-22.83421875 0.12875 -22.2309375 -0.2425 -21.609375 -0.625 C-15.15364974 -3.22586773 -6.45319662 -2.24028024 0 0 Z " fill="#FAF9FA" transform="translate(895.4375,475.5)"/>
<path d="M0 0 C6.72968923 4.16529223 10.38980765 9.66073111 12.7734375 17.09765625 C12.7734375 21.38765625 12.7734375 25.67765625 12.7734375 30.09765625 C-0.0965625 30.09765625 -12.9665625 30.09765625 -26.2265625 30.09765625 C-23.86719047 37.3617822 -23.86719047 37.3617822 -19.2265625 42.09765625 C-14.17679648 43.78091159 -9.15158808 43.99873206 -4.2890625 41.72265625 C-2.16572507 40.11536398 -2.16572507 40.11536398 -0.2265625 38.09765625 C2.8125 37.90234375 2.8125 37.90234375 6.3984375 37.97265625 C7.58695313 37.99070312 8.77546875 38.00875 10 38.02734375 C11.37285156 38.06214844 11.37285156 38.06214844 12.7734375 38.09765625 C9.73378253 45.14965579 6.31515017 50.21498048 -0.96875 53.234375 C-8.83331512 55.31839046 -18.34452912 55.48608925 -25.8515625 52.09765625 C-32.57676824 48.07383568 -36.60626714 42.04985149 -38.75390625 34.578125 C-40.63304992 24.71650325 -39.30288347 16.20157728 -33.71875 7.83984375 C-25.65669303 -2.32209782 -12.01089228 -5.44797857 0 0 Z " fill="#FBFBFB" transform="translate(802.2265625,475.90234375)"/>
<path d="M0 0 C4.29 0 8.58 0 13 0 C13 9.57 13 19.14 13 29 C14.32 27.35 15.64 25.7 17 24 C22.78887465 20.57393133 28.36103896 20.16893581 35 21 C40.95503659 22.60211644 44.01822415 25.66497203 47.08984375 30.90234375 C49.32621684 36.05655983 49.13297254 41.28982093 49.09765625 46.80078125 C49.0962413 47.63715622 49.09482635 48.47353119 49.09336853 49.33525085 C49.08779184 51.994371 49.07524365 54.6534055 49.0625 57.3125 C49.05748199 59.12044149 49.05291961 60.9283843 49.04882812 62.73632812 C49.03783004 67.15758484 49.0205815 71.57877793 49 76 C44.71 76 40.42 76 36 76 C35.98541748 75.00145996 35.97083496 74.00291992 35.95581055 72.97412109 C35.89759932 69.25013394 35.82036923 65.52673708 35.73754883 61.80322266 C35.70440637 60.1952476 35.67634146 58.58715919 35.65356445 56.97900391 C35.61982033 54.65999295 35.56749806 52.34201069 35.51171875 50.0234375 C35.50532883 49.31069672 35.4989389 48.59795593 35.49235535 47.86361694 C35.35691929 43.20917824 34.43561278 39.96644093 32 36 C28.44003708 33.42486289 25.31258752 33.81803918 21.125 34.3828125 C17.88679744 35.32331986 16.65993672 37.16427478 15 40 C13.4725361 43.0549278 13.76008168 46.2763314 13.68359375 49.6328125 C13.66281265 50.38464813 13.64203156 51.13648376 13.62062073 51.91110229 C13.55517295 54.31564085 13.49626262 56.72028967 13.4375 59.125 C13.39431023 60.75391771 13.35069579 62.38282422 13.30664062 64.01171875 C13.19949649 68.00769915 13.09821567 72.00379059 13 76 C8.71 76 4.42 76 0 76 C0 50.92 0 25.84 0 0 Z " fill="#FBFAFB" transform="translate(707,453)"/>
<path d="M0 0 C4.29 0 8.58 0 13 0 C13.33 14.52 13.66 29.04 14 44 C23.52005348 33.01728397 23.52005348 33.01728397 33 22 C36.04503273 21.46173664 37.91515481 21.3015059 40.875 21.5625 C41.56335938 21.59408203 42.25171875 21.62566406 42.9609375 21.65820312 C44.64249892 21.73994569 46.32183497 21.86549059 48 22 C46.27425728 26.25121986 43.24520808 29.35609685 40.25 32.75 C35.94432645 37.69264558 31.8332895 42.6759868 28 48 C31.77137986 52.73986109 35.55847644 57.46539256 39.390625 62.15625 C39.97561768 62.87296875 40.56061035 63.5896875 41.16333008 64.328125 C42.33866207 65.76692415 43.51556385 67.2044425 44.6940918 68.640625 C45.23718994 69.30578125 45.78028809 69.9709375 46.33984375 70.65625 C46.82831787 71.25244141 47.31679199 71.84863281 47.82006836 72.46289062 C49 74 49 74 50 76 C44.28990254 77.11989805 38.59749087 78.00231597 33 76 C27.74580227 71.81913536 24.11260951 65.97507257 20.58300781 60.33349609 C18.59567859 57.40399382 16.26624021 54.71948825 14 52 C13.67 59.92 13.34 67.84 13 76 C8.71 76 4.42 76 0 76 C0 50.92 0 25.84 0 0 Z " fill="#FAFAFB" transform="translate(529,453)"/>
<path d="M0 0 C4.66643291 2.69254137 7.90033466 6.20100399 9.625 11.375 C9.71089303 12.77155459 9.74272715 14.17185777 9.73852539 15.57104492 C9.73844986 16.41168991 9.73837433 17.2523349 9.73829651 18.11845398 C9.73313522 19.02166885 9.72797394 19.92488373 9.72265625 20.85546875 C9.7212413 21.78345779 9.71982635 22.71144684 9.71836853 23.66755676 C9.71276937 26.63257058 9.70021704 29.59750899 9.6875 32.5625 C9.68248489 34.57226453 9.677922 36.58203025 9.67382812 38.59179688 C9.66280021 43.51956032 9.64553617 48.44726737 9.625 53.375 C5.665 53.375 1.705 53.375 -2.375 53.375 C-2.38958252 52.37645996 -2.40416504 51.37791992 -2.41918945 50.34912109 C-2.47740068 46.62513394 -2.55463077 42.90173708 -2.63745117 39.17822266 C-2.67059363 37.5702476 -2.69865854 35.96215919 -2.72143555 34.35400391 C-2.75517967 32.03499295 -2.80750194 29.71701069 -2.86328125 27.3984375 C-2.86967117 26.68569672 -2.8760611 25.97295593 -2.88264465 25.23861694 C-3.01799938 20.58697324 -3.91484237 17.32753129 -6.375 13.375 C-10.23196175 11.01796782 -13.93424172 10.89920447 -18.375 11.375 C-22.42484202 13.80490521 -23.9829365 15.93316312 -25.375 20.375 C-25.60546958 22.97492985 -25.74588554 25.48036507 -25.7890625 28.08203125 C-25.80842865 28.80742599 -25.8277948 29.53282074 -25.8477478 30.28019714 C-25.90722108 32.58251422 -25.95379845 34.88488219 -26 37.1875 C-26.03820958 38.75457832 -26.07726303 40.32163631 -26.1171875 41.88867188 C-26.21289563 45.71728152 -26.29704448 49.54598942 -26.375 53.375 C-30.335 53.375 -34.295 53.375 -38.375 53.375 C-38.375 35.555 -38.375 17.735 -38.375 -0.625 C-34.415 -0.625 -30.455 -0.625 -26.375 -0.625 C-26.045 1.355 -25.715 3.335 -25.375 5.375 C-24.90449219 4.95347656 -24.43398438 4.53195312 -23.94921875 4.09765625 C-23.32660156 3.54980469 -22.70398438 3.00195312 -22.0625 2.4375 C-21.44761719 1.89222656 -20.83273437 1.34695313 -20.19921875 0.78515625 C-14.81634476 -3.37590908 -5.93356937 -2.72379089 0 0 Z " fill="#FDFDFD" transform="translate(508.375,475.625)"/>
<path d="M0 0 C4.62 0 9.24 0 14 0 C14 21.12 14 42.24 14 64 C25.22 64 36.44 64 48 64 C48 67.96 48 71.92 48 76 C32.16 76 16.32 76 0 76 C0 50.92 0 25.84 0 0 Z " fill="#FEFEFE" transform="translate(391,453)"/>
<path d="M0 0 C0 4.62 0 9.24 0 14 C-2.5678125 14.0928125 -2.5678125 14.0928125 -5.1875 14.1875 C-9.32653159 14.55505879 -10.72420341 14.79039459 -14.125 17.375 C-17.13162923 21.58428092 -17.19460573 25.30450541 -17.31640625 30.29296875 C-17.33718735 30.99899734 -17.35796844 31.70502594 -17.37937927 32.43244934 C-17.44467491 34.68403551 -17.50366647 36.93573662 -17.5625 39.1875 C-17.60570425 40.7155066 -17.64931916 42.24350164 -17.69335938 43.77148438 C-17.80033574 47.51420562 -17.90165922 51.2570423 -18 55 C-22.29 55 -26.58 55 -31 55 C-31 37.18 -31 19.36 -31 1 C-26.71 1 -22.42 1 -18 1 C-17.67 2.98 -17.34 4.96 -17 7 C-16.278125 6.21625 -15.55625 5.4325 -14.8125 4.625 C-9.70181029 -0.14497706 -7.22773194 0 0 0 Z " fill="#F8F8F8" transform="translate(854,474)"/>
<path d="M0 0 C3.78196288 2.13034618 6.46579867 4.92499465 8 9 C8.3359375 12.4609375 8.3359375 12.4609375 8.375 16.375 C8.40335938 17.66148437 8.43171875 18.94796875 8.4609375 20.2734375 C7.82541292 25.41149216 5.76371144 28.27288008 2.1171875 31.84375 C-2.22937094 34.21751623 -7.22280228 33.68975582 -12 33 C-15.95689508 31.09706573 -18.44310343 28.07295263 -20 24 C-20.3359375 20.5390625 -20.3359375 20.5390625 -20.375 16.625 C-20.40335938 15.33851563 -20.43171875 14.05203125 -20.4609375 12.7265625 C-19.83080298 7.63208511 -17.75899875 4.54578678 -13.9375 1.1875 C-9.33137631 -1.63560807 -5.07640555 -1.27343279 0 0 Z " fill="#090908" transform="translate(678,486)"/>
<path d="M0 0 C4.29 0 8.58 0 13 0 C13 17.82 13 35.64 13 54 C8.71 54 4.42 54 0 54 C0 36.18 0 18.36 0 0 Z " fill="#F7F7F7" transform="translate(446,475)"/>
<path d="M0 0 C0.8350708 0.00128906 1.6701416 0.00257813 2.53051758 0.00390625 C8.61640713 0.09867436 14.05183224 0.87858693 19.6875 3.3125 C19.6875 3.9725 19.6875 4.6325 19.6875 5.3125 C13.11278736 4.42744253 13.11278736 4.42744253 10.375 3.6875 C8.58139066 3.10280774 8.58139066 3.10280774 6.6875 4.3125 C6.6875 3.3225 6.6875 2.3325 6.6875 1.3125 C4.78766009 1.54997999 2.88786049 1.78778758 0.98828125 2.02734375 C-0.51353801 2.21347755 -2.01613748 2.39344944 -3.51953125 2.56640625 C-6.5932132 2.92566778 -9.36738174 3.33079391 -12.3125 4.3125 C-12.3125 4.9725 -12.3125 5.6325 -12.3125 6.3125 C-13.3025 6.209375 -14.2925 6.10625 -15.3125 6 C-20.23951423 5.99002629 -23.45778448 8.48679752 -27.3125 11.3125 C-28.17875 11.93125 -29.045 12.55 -29.9375 13.1875 C-31.98822208 15.0223566 -33.58447414 16.81474742 -35.3125 18.9375 C-37.7611354 21.90994142 -39.66962934 22.99701893 -43.3125 24.3125 C-43.99736725 25.63657669 -44.66120203 26.97159241 -45.3125 28.3125 C-46.32489936 29.22120347 -47.37012591 30.09405054 -48.4375 30.9375 C-49.38625 31.72125 -50.335 32.505 -51.3125 33.3125 C-51.3125 33.9725 -51.3125 34.6325 -51.3125 35.3125 C-52.2096875 35.6528125 -52.2096875 35.6528125 -53.125 36 C-55.91438284 37.6736297 -56.9293842 39.40067726 -58.3125 42.3125 C-57.9825 42.9725 -57.6525 43.6325 -57.3125 44.3125 C-58.3025 44.3125 -59.2925 44.3125 -60.3125 44.3125 C-61.3025 46.2925 -62.2925 48.2725 -63.3125 50.3125 C-56.3825 50.8075 -56.3825 50.8075 -49.3125 51.3125 C-49.3125 50.6525 -49.3125 49.9925 -49.3125 49.3125 C-47.3325 48.8175 -47.3325 48.8175 -45.3125 48.3125 C-45.209375 47.714375 -45.10625 47.11625 -45 46.5 C-44.21548309 44.00380983 -43.21360692 43.05518135 -41.3125 41.3125 C-40.9825 40.6525 -40.6525 39.9925 -40.3125 39.3125 C-38.64970673 38.3060725 -36.98266516 37.30664593 -35.3125 36.3125 C-34.796875 35.77625 -34.28125 35.24 -33.75 34.6875 C-32.00432457 33.0177235 -30.63758323 32.81650577 -28.3125 32.3125 C-29.72386592 33.95980855 -31.13601773 35.6064492 -32.55175781 37.25 C-33.69887912 38.59371615 -34.83433472 39.94750743 -35.95605469 41.3125 C-46.05562347 53.47235706 -46.05562347 53.47235706 -51.56689453 54.89404297 C-56.30726477 55.23604784 -60.72564454 54.46373442 -65.3125 53.3125 C-66.17453896 47.8529199 -64.15839455 44.47649244 -61.31396484 40.02441406 C-57.96569449 35.48762618 -54.09027054 31.53550667 -50.06469727 27.59814453 C-48.63184885 26.19421064 -47.21857472 24.77258887 -45.80664062 23.34765625 C-32.86780906 10.52539074 -18.83773423 -0.12030885 0 0 Z " fill="#157DF7" transform="translate(281.3125,399.6875)"/>
<path d="M0 0 C5.89618841 3.70153899 10.80455086 7.40282307 15 13 C13.35 12.67 11.7 12.34 10 12 C10 11.01 10 10.02 10 9 C9.484375 8.7525 8.96875 8.505 8.4375 8.25 C6.48749648 7.24999819 4.57914513 6.16893394 2.6875 5.0625 C-4.21016193 1.14603094 -10.12144056 -0.54028526 -18 -1 C-18 -1.66 -18 -2.32 -18 -3 C-22.54170996 -1.09115308 -22.54170996 -1.09115308 -27 1 C-27 0.34 -27 -0.32 -27 -1 C-27.66 -1 -28.32 -1 -29 -1 C-29 -0.34 -29 0.32 -29 1 C-34 3 -34 3 -36.375 3.75 C-42.60595904 6.71712335 -46.2880126 11.30828599 -50 17 C-51.64295195 18.36244796 -53.30824337 19.69864875 -55 21 C-55.556875 21.7425 -56.11375 22.485 -56.6875 23.25 C-57.120625 23.8275 -57.55375 24.405 -58 25 C-58.66 25 -59.32 25 -60 25 C-60.33 26.32 -60.66 27.64 -61 29 C-61.99 29 -62.98 29 -64 29 C-65.395192 30.39642586 -65.395192 30.39642586 -66.5625 32.25 C-66.995625 32.89066406 -67.42875 33.53132813 -67.875 34.19140625 C-69.05898417 36.02484812 -69.05898417 36.02484812 -70.0625 38.1875 C-71 40 -71 40 -73.0625 41.9375 C-75.3402675 44.36222025 -75.43818514 45.78962938 -76 49 C-76.95298777 50.36733028 -77.95374591 51.70264493 -79 53 C-79.69580267 54.31836295 -80.37224433 55.64791086 -81 57 C-82.76768525 51.69694424 -79.33721236 46.83144674 -77 42 C-73.0137107 34.83157198 -67.64187783 28.89714285 -62 23 C-61.3488623 22.31099609 -60.69772461 21.62199219 -60.02685547 20.91210938 C-43.88108244 3.91200543 -24.61551732 -13.09180847 0 0 Z " fill="#0A94F4" transform="translate(234,463)"/>
<path d="M0 0 C3.42590762 2.1710246 4.88490418 4.5206118 6.25 8.375 C6.25 9.695 6.25 11.015 6.25 12.375 C-2.66 12.375 -11.57 12.375 -20.75 12.375 C-19.67872151 5.94732904 -18.12572581 2.85053226 -12.875 -1 C-8.24678083 -2.36124093 -4.28583834 -2.17463256 0 0 Z " fill="#090909" transform="translate(796.75,485.625)"/>
<path d="M0 0 C2.73861743 1.38664174 3.87087898 2.61123007 6 5 C6.66 7.31 7.32 9.62 8 12 C-1.24 12 -10.48 12 -20 12 C-16.57142857 2.85714286 -16.57142857 2.85714286 -12 0 C-7.79396678 -1.40201107 -4.28232003 -1.05231073 0 0 Z " fill="#080808" transform="translate(890,485)"/>
<path d="M0 0 C2.5 2.125 2.5 2.125 4 5 C4 8.77910616 3.83289714 11.00693033 1.375 13.9375 C-1.97682053 15.43699866 -4.36980218 15.45377473 -8 15 C-10.4375 13.5 -10.4375 13.5 -12 11 C-12.61014545 8.1910285 -12.65360928 5.80363979 -12 3 C-8.39055206 -1.48446562 -5.36203018 -1.65735478 0 0 Z " fill="#F5F5F5" transform="translate(457,453)"/>
<path d="M0 0 C-0.556875 0.226875 -1.11375 0.45375 -1.6875 0.6875 C-4.67961603 2.38572802 -6.61600535 4.50764196 -9 7 C-13.60529797 11.7142405 -18.28425936 16.22046452 -23.3359375 20.45703125 C-25.23084911 22.09388333 -25.23084911 22.09388333 -27 25 C-36 30 -36 30 -41 30 C-41.33 30.66 -41.66 31.32 -42 32 C-49.1487019 31.12464875 -55.75287929 29.71852423 -62 26 C-62.33 25.01 -62.66 24.02 -63 23 C-58 25 -58 25 -55.78125 26.046875 C-49.40962128 28.23041068 -39.94053727 28.36867861 -33.6875 25.5625 C-27.15818485 21.52187456 -21.72059568 15.82947926 -16.4609375 10.30078125 C-15.84686035 9.66317871 -15.2327832 9.02557617 -14.60009766 8.36865234 C-13.38480157 7.10011289 -12.18335907 5.81812626 -10.99755859 4.52197266 C-7.42578152 0.79227032 -5.45155693 -0.85077328 0 0 Z " fill="#4B32F7" transform="translate(242,527)"/>
<path d="M0 0 C-0.66 0 -1.32 0 -2 0 C-2 0.66 -2 1.32 -2 2 C-2.99 2 -3.98 2 -5 2 C-5 2.66 -5 3.32 -5 4 C-6.98 4.99 -6.98 4.99 -9 6 C-9 5.34 -9 4.68 -9 4 C-11.31 4.33 -13.62 4.66 -16 5 C-16 5.66 -16 6.32 -16 7 C-18.76098453 9.05468616 -21.34985919 10.74628651 -24.5625 12 C-27.16514087 12.93276142 -27.16514087 12.93276142 -29.5625 15.0625 C-31.91592074 16.93316777 -33.16002597 17.39143414 -36 18 C-36.33 18.66 -36.66 19.32 -37 20 C-38.71744878 20.95780797 -40.43568626 21.9142667 -42.16015625 22.859375 C-44.84123078 24.52152736 -46.83805937 26.72119771 -49 29 C-50.31175986 30.02813611 -51.6369893 31.04084432 -53 32 C-45.96154597 16.33598957 -24.8944594 7.19504064 -10 1 C-3.60339219 -1.38592007 -3.60339219 -1.38592007 0 0 Z " fill="#01B3F4" transform="translate(215,386)"/>
<path d="M0 0 C0.99 0.66 1.98 1.32 3 2 C2.34 2 1.68 2 1 2 C1 2.66 1 3.32 1 4 C1.99 3.67 2.98 3.34 4 3 C10.86350014 3.62395456 14.32655409 4.99273652 19 10 C19.99 9.67 20.98 9.34 22 9 C22.495 12.465 22.495 12.465 23 16 C22.53851563 15.61328125 22.07703125 15.2265625 21.6015625 14.828125 C15.41801431 9.89106281 9.19107173 6.48895837 1.25 5.5625 C-11.9179818 7.33511293 -23.1119576 22.9966948 -32 32 C-32.66 31.34 -33.32 30.68 -34 30 C-33.52949219 29.61328125 -33.05898437 29.2265625 -32.57421875 28.828125 C-29.27643465 26.06973002 -26.54549248 23.4833055 -24 20 C-23.34 20 -22.68 20 -22 20 C-22 18.68 -22 17.36 -22 16 C-21.360625 15.87625 -20.72125 15.7525 -20.0625 15.625 C-19.381875 15.41875 -18.70125 15.2125 -18 15 C-17.67 14.34 -17.34 13.68 -17 13 C-16.34 13 -15.68 13 -15 13 C-15 12.01 -15 11.02 -15 10 C-14.01 9.67 -13.02 9.34 -12 9 C-11.21625 8.175 -10.4325 7.35 -9.625 6.5 C-6.81166628 3.82063456 -5.6785292 3.59651825 -2 3 C-1.34 2.01 -0.68 1.02 0 0 Z " fill="#1484F7" transform="translate(214,472)"/>
<path d="M0 0 C7.36989466 1.694387 13.57735897 3.98783165 20 8 C20 8.33 20 8.66 20 9 C18.69289063 9.03867187 18.69289063 9.03867187 17.359375 9.078125 C7.62361519 9.54173261 -1.39382423 10.94958151 -9.75 16.25 C-13.90282039 18.48613406 -16.35418383 18.32602219 -21 18 C-20.67 17.34 -20.34 16.68 -20 16 C-18.948125 15.87625 -17.89625 15.7525 -16.8125 15.625 C-11.82156511 14.80681395 -8.82569125 12.59011818 -5.0625 9.3125 C-2.11775371 7.43857054 0.55592949 7.25047786 4 7 C4.99 7.33 5.98 7.66 7 8 C6.34 6.68 5.68 5.36 5 4 C3.35 4 1.7 4 0 4 C-0.33 3.01 -0.66 2.02 -1 1 C-0.67 0.67 -0.34 0.34 0 0 Z " fill="#1970F8" transform="translate(264,384)"/>
<path d="M0 0 C3.99293372 5.98940058 2.59398731 15.01173928 2 22 C1.18200955 26.02488483 -0.07306496 29.38245214 -2 33 C-2.38929688 33.73863281 -2.77859375 34.47726562 -3.1796875 35.23828125 C-7.54124336 42.50323969 -13.92195285 48.1874986 -20 54 C-20 50.04119531 -18.5623921 48.92844812 -16 46 C-15.4225 45.443125 -14.845 44.88625 -14.25 44.3125 C-12.77011494 43.06070402 -12.77011494 43.06070402 -13 41 C-12.38125 40.731875 -11.7625 40.46375 -11.125 40.1875 C-8.7004767 39.04443152 -8.7004767 39.04443152 -7 36 C-6.34 36 -5.68 36 -5 36 C-4.34 32.04 -3.68 28.08 -3 24 C-2.34 24 -1.68 24 -1 24 C-0.19081967 16.86676414 0.05439943 10.21619546 -0.84375 3.08203125 C-0.92109375 2.05142578 -0.92109375 2.05142578 -1 1 C-0.67 0.67 -0.34 0.34 0 0 Z " fill="#562AF3" transform="translate(325,431)"/>
<path d="M0 0 C0.99 0.33 1.98 0.66 3 1 C3.66 6.61 4.32 12.22 5 18 C4.34 18 3.68 18 3 18 C3.12375 18.845625 3.2475 19.69125 3.375 20.5625 C2.8425027 25.44372529 0.36272539 27.60524865 -3 31 C-4.2065625 32.2684375 -4.2065625 32.2684375 -5.4375 33.5625 C-7.97909682 35.98011649 -10.60657389 38.24537751 -13.28515625 40.5078125 C-15.64623049 42.56232357 -17.82073711 44.75469885 -20 47 C-20.99 46.67 -21.98 46.34 -23 46 C-22.35933594 45.43152344 -21.71867187 44.86304688 -21.05859375 44.27734375 C-8.3514196 33.03726097 -8.3514196 33.03726097 1 19 C1.09774794 16.91854396 1.12975741 14.83374453 1.125 12.75 C1.12757813 11.63109375 1.13015625 10.5121875 1.1328125 9.359375 C1.00608539 6.15392456 0.6008965 3.14755311 0 0 Z " fill="#4D36F6" transform="translate(307,432)"/>
<path d="M0 0 C0.66 0.33 1.32 0.66 2 1 C2 4.63 2 8.26 2 12 C-1.27891925 13.63945963 -4.90613534 13.12030178 -8.5078125 13.09765625 C-9.76874222 13.09553383 -9.76874222 13.09553383 -11.05514526 13.09336853 C-13.74513275 13.08776237 -16.43503759 13.07520886 -19.125 13.0625 C-20.94661338 13.05748579 -22.76822807 13.05292275 -24.58984375 13.04882812 C-29.05992777 13.03779094 -33.52994986 13.0205222 -38 13 C-37.67 14.32 -37.34 15.64 -37 17 C-37.66 17 -38.32 17 -39 17 C-39.33 15.02 -39.66 13.04 -40 11 C-26.8 11 -13.6 11 0 11 C0 7.37 0 3.74 0 0 Z " fill="#202020" transform="translate(910,495)"/>
<path d="M0 0 C2.63822024 3.10378852 3.70365731 5.81462924 4.6875 9.75 C5.06455078 11.22726562 5.06455078 11.22726562 5.44921875 12.734375 C5.63097656 13.48203125 5.81273437 14.2296875 6 15 C4.68 14.67 3.36 14.34 2 14 C2.33 14.99 2.66 15.98 3 17 C1.671875 19.34765625 1.671875 19.34765625 -0.25 22.0625 C-3.68633469 27.2067136 -5.63167011 31.99238019 -7 38 C-7.66 37.67 -8.32 37.34 -9 37 C-8.65595412 32.7567675 -7.37367218 29.48030762 -5.5625 25.6875 C-1.62449259 17.27809513 -0.65377526 9.20446753 0 0 Z " fill="#6020F0" transform="translate(334,442)"/>
<path d="M0 0 C2.46800047 1.15173355 4.04783565 2.04783565 6 4 C6.125 6.625 6.125 6.625 6 9 C6.66 9 7.32 9 8 9 C8.33 9.99 8.66 10.98 9 12 C9.99 12.66 10.98 13.32 12 14 C12.268125 14.639375 12.53625 15.27875 12.8125 15.9375 C14.55684326 18.96714881 16.82015183 19.7413101 20 21 C20.66 20.67 21.32 20.34 22 20 C21.67 21.32 21.34 22.64 21 24 C25.29 24.66 29.58 25.32 34 26 C33.67 27.32 33.34 28.64 33 30 C20.58446171 26.19980672 10.03363092 19.81524197 3.4609375 8.3046875 C0 1.51815642 0 1.51815642 0 0 Z " fill="#473AF9" transform="translate(154,543)"/>
<path d="M0 0 C0.99 0 1.98 0 3 0 C-0.91014094 9.16439284 -11.55274994 14.88226046 -20.140625 19.03515625 C-26.78236206 21.67955156 -33.95142615 21.69760949 -41 21 C-41.99 20.34 -42.98 19.68 -44 19 C-42.38931641 18.92652344 -42.38931641 18.92652344 -40.74609375 18.8515625 C-39.30987358 18.77646602 -37.87367681 18.70092124 -36.4375 18.625 C-35.73302734 18.5940625 -35.02855469 18.563125 -34.30273438 18.53125 C-29.60551928 18.27149617 -25.53002603 17.3507714 -21 16 C-19.68 16 -18.36 16 -17 16 C-17 15.34 -17 14.68 -17 14 C-15.35 13.67 -13.7 13.34 -12 13 C-12 12.34 -12 11.68 -12 11 C-11.01 11 -10.02 11 -9 11 C-9 10.34 -9 9.68 -9 9 C-8.195625 8.731875 -7.39125 8.46375 -6.5625 8.1875 C-5.2940625 7.5996875 -5.2940625 7.5996875 -4 7 C-3.67 6.01 -3.34 5.02 -3 4 C-1.625 1.8125 -1.625 1.8125 0 0 Z " fill="#522BED" transform="translate(285,501)"/>
<path d="M0 0 C3.95224869 2.12813391 6.95482907 4.72058515 10 8 C9.67 8.66 9.34 9.32 9 10 C8.01 9.67 7.02 9.34 6 9 C6 8.01 6 7.02 6 6 C2.75433123 4.2523322 -0.3977883 2.82550685 -4 2 C-6.38305196 3.24348469 -6.38305196 3.24348469 -8 5 C-7.649375 5.598125 -7.29875 6.19625 -6.9375 6.8125 C-6 9 -6 9 -7 12 C-6.60602665 14.63804589 -6.60602665 14.63804589 -6 17 C-9.61619737 13.50045415 -10.92213561 12.22636419 -11.25 7.0625 C-11.19620396 4.59236504 -11.11352032 3.22704063 -10 1 C-6.7203926 -0.6398037 -3.53087538 -0.60969575 0 0 Z " fill="#1B71F4" transform="translate(222,485)"/>
<path d="M0 0 C1.23907104 0.00870117 1.23907104 0.00870117 2.50317383 0.01757812 C8.53744503 0.14582791 13.97705596 0.96277738 19.5625 3.375 C19.5625 4.035 19.5625 4.695 19.5625 5.375 C12.98778736 4.48994253 12.98778736 4.48994253 10.25 3.75 C8.45639066 3.16530774 8.45639066 3.16530774 6.5625 4.375 C6.5625 3.385 6.5625 2.395 6.5625 1.375 C4.66266009 1.61247999 2.76286049 1.85028758 0.86328125 2.08984375 C-0.63853801 2.27597755 -2.14113748 2.45594944 -3.64453125 2.62890625 C-6.7182132 2.98816778 -9.49238174 3.39329391 -12.4375 4.375 C-12.4375 5.035 -12.4375 5.695 -12.4375 6.375 C-15.4075 6.045 -18.3775 5.715 -21.4375 5.375 C-14.78387925 0.93925284 -7.87055278 -0.13474502 0 0 Z " fill="#1F67F1" transform="translate(281.4375,399.625)"/>
<path d="M0 0 C0.33 0.99 0.66 1.98 1 3 C3.00016466 4.20882096 3.00016466 4.20882096 5 5 C5 5.66 5 6.32 5 7 C5.66 7 6.32 7 7 7 C6.34 12.61 5.68 18.22 5 24 C2.20433689 21.20433689 1.73773271 17.97765235 0.8125 14.25 C0.62236328 13.54617188 0.43222656 12.84234375 0.23632812 12.1171875 C-0.86552348 7.74230807 -1.10512139 4.47679747 0 0 Z " fill="#0F78F9" transform="translate(140,503)"/>
<path d="M0 0 C0.99 0.33 1.98 0.66 3 1 C2.59007812 1.53109375 2.18015625 2.0621875 1.7578125 2.609375 C1.21898437 3.31578125 0.68015625 4.0221875 0.125 4.75 C-0.40867188 5.44609375 -0.94234375 6.1421875 -1.4921875 6.859375 C-3.03556354 8.93559607 -3.03556354 8.93559607 -4.06640625 11.14453125 C-5 13 -5 13 -7.0625 14.9375 C-9.3402675 17.36222025 -9.43818514 18.78962938 -10 22 C-10.95298777 23.36733028 -11.95374591 24.70264493 -13 26 C-13.69580267 27.31836295 -14.37224433 28.64791086 -15 30 C-16.76557969 24.70326093 -13.34518568 19.82232555 -11 15 C-7.852694 9.57644397 -4.11397273 4.71896873 0 0 Z " fill="#0F84F2" transform="translate(168,490)"/>
<path d="M0 0 C0.66 0.99 1.32 1.98 2 3 C0.33333333 4.66666667 -1.33333333 6.33333333 -3 8 C-3.556875 8.598125 -4.11375 9.19625 -4.6875 9.8125 C-6 11 -6 11 -8 11 C-8.2475 11.804375 -8.495 12.60875 -8.75 13.4375 C-9.73793981 16.25312846 -10.81960102 18.85975968 -12.0625 21.5625 C-13.21972126 24.0939215 -14.02513734 26.12847975 -14.5625 28.875 C-15.08786538 31.4267747 -16.02116118 32.36530706 -18 34 C-17.4784136 28.23987188 -15.8395892 23.80148508 -13.3125 18.625 C-12.77556519 17.50834961 -12.77556519 17.50834961 -12.2277832 16.36914062 C-6.72618514 5.13287791 -6.72618514 5.13287791 -3 1 C-2.01 0.67 -1.02 0.34 0 0 Z " fill="#01BCF4" transform="translate(160,421)"/>
<path d="M0 0 C0.66 0 1.32 0 2 0 C-1.05549836 8.57657213 -7.82843272 15.0048976 -14.125 21.375 C-14.61532715 21.87459229 -15.1056543 22.37418457 -15.61083984 22.88891602 C-23.79171719 31 -23.79171719 31 -28 31 C-27.505 29.515 -27.505 29.515 -27 28 C-26.01 28 -25.02 28 -24 28 C-23.67 27.01 -23.34 26.02 -23 25 C-22.34 25 -21.68 25 -21 25 C-18.31256494 22.72926391 -18.31256494 22.72926391 -16 20 C-16 19.01 -16 18.02 -16 17 C-15.443125 16.79375 -14.88625 16.5875 -14.3125 16.375 C-11.71424423 14.83009117 -10.15521789 12.93937362 -8.296875 10.58203125 C-7 9 -7 9 -4.3125 6.375 C-2.2604605 4.26749997 -1.09648952 2.69138336 0 0 Z " fill="#5C27F5" transform="translate(249,535)"/>
<path d="M0 0 C0.83789062 0.14566406 1.67578125 0.29132812 2.5390625 0.44140625 C1.9821875 0.66828125 1.4253125 0.89515625 0.8515625 1.12890625 C-2.14055353 2.82713427 -4.07694285 4.94904821 -6.4609375 7.44140625 C-11.06623547 12.15564675 -15.74519686 16.66187077 -20.796875 20.8984375 C-22.69178661 22.53528958 -22.69178661 22.53528958 -24.4609375 25.44140625 C-25.1209375 25.44140625 -25.7809375 25.44140625 -26.4609375 25.44140625 C-26.4609375 22.44140625 -26.4609375 22.44140625 -25.23828125 21.14453125 C-24.63113281 20.665 -24.02398437 20.18546875 -23.3984375 19.69140625 C-20.33741531 17.16702122 -17.5328571 14.51911213 -14.80078125 11.6484375 C-13.82347046 10.62991699 -13.82347046 10.62991699 -12.82641602 9.59082031 C-11.51150601 8.21220499 -10.20828628 6.8223331 -8.91772461 5.42089844 C-4.21952605 0.53815626 -4.21952605 0.53815626 0 0 Z " fill="#5132F6" transform="translate(239.4609375,526.55859375)"/>
<path d="M0 0 C0.99 0.33 1.98 0.66 3 1 C-6.61355197 6.16137421 -14.91015509 9.21827052 -26 8 C-26.99 7.34 -27.98 6.68 -29 6 C-28.34 5.34 -27.68 4.68 -27 4 C-25.0664202 4.23336308 -23.13322181 4.47365782 -21.20703125 4.76171875 C-13.98653097 5.54127719 -6.42136451 3.21068225 0 0 Z " fill="#592AF3" transform="translate(218,566)"/>
<path d="M0 0 C0 0.99 0 1.98 0 3 C-0.639375 3.12375 -1.27875 3.2475 -1.9375 3.375 C-2.618125 3.58125 -3.29875 3.7875 -4 4 C-4.33 4.66 -4.66 5.32 -5 6 C-5.66 6 -6.32 6 -7 6 C-7 6.66 -7 7.32 -7 8 C-10.64120668 9.33256282 -12.66876554 8.65840377 -16.1875 7.1875 C-17.06792969 6.83042969 -17.94835937 6.47335937 -18.85546875 6.10546875 C-21 5 -21 5 -22 3 C-21.33355469 3.03480469 -20.66710937 3.06960938 -19.98046875 3.10546875 C-12.8245132 3.31564367 -6.79436875 2.2078413 0 0 Z " fill="#631FF1" transform="translate(216,577)"/>
<path d="M0 0 C3.1046721 2.56192942 6.08451149 5.22535635 9 8 C8.01 8.33 7.02 8.66 6 9 C5.34 8.67 4.68 8.34 4 8 C4 7.01 4 6.02 4 5 C3.484375 4.7525 2.96875 4.505 2.4375 4.25 C0.48749648 3.24999819 -1.42085487 2.16893394 -3.3125 1.0625 C-10.21016193 -2.85396906 -16.12144056 -4.54028526 -24 -5 C-24 -5.33 -24 -5.66 -24 -6 C-14.1958973 -8.20592311 -7.90561198 -5.69544089 0 0 Z " fill="#1180F1" transform="translate(240,467)"/>
<path d="M0 0 C0 0.33 0 0.66 0 1 C-0.88300781 1.13535156 -1.76601563 1.27070313 -2.67578125 1.41015625 C-11.5076983 2.99439916 -17.82448689 5.64876989 -25 11 C-25.76054687 11.5671875 -26.52109375 12.134375 -27.3046875 12.71875 C-27.86414063 13.1415625 -28.42359375 13.564375 -29 14 C-28.67 12.68 -28.34 11.36 -28 10 C-26.68 9.67 -25.36 9.34 -24 9 C-24 8.34 -24 7.68 -24 7 C-23.34 7 -22.68 7 -22 7 C-21.67 6.01 -21.34 5.02 -21 4 C-20.34 4 -19.68 4 -19 4 C-19 3.34 -19 2.68 -19 2 C-12.31311081 -0.85888741 -7.14765932 -1.23852969 0 0 Z " fill="#285EF3" transform="translate(286,415)"/>
<path d="M0 0 C2 2 2 2 2 6 C-6.91 6 -15.82 6 -25 6 C-24.67 5.01 -24.34 4.02 -24 3 C-16.08 3.33 -8.16 3.66 0 4 C0 2.68 0 1.36 0 0 Z " fill="#383838" transform="translate(801,492)"/>
<path d="M0 0 C0.556875 0.226875 1.11375 0.45375 1.6875 0.6875 C1.16800781 1.00203125 0.64851563 1.3165625 0.11328125 1.640625 C-6.19720236 5.51323232 -11.26631817 9.37245429 -15.8828125 15.19921875 C-17.3125 16.6875 -17.3125 16.6875 -20.3125 17.6875 C-19.03154165 12.49624775 -17.19672787 10.2540258 -13 7 C-12.05511719 6.25363281 -11.11023438 5.50726563 -10.13671875 4.73828125 C-3.04479167 -0.41145833 -3.04479167 -0.41145833 0 0 Z " fill="#1B70F6" transform="translate(260.3125,405.3125)"/>
<path d="M0 0 C0.66 0.33 1.32 0.66 2 1 C-2.62 5.62 -7.24 10.24 -12 15 C-12.99 14.67 -13.98 14.34 -15 14 C-14.360625 13.21625 -13.72125 12.4325 -13.0625 11.625 C-11.01857687 9.20460719 -11.01857687 9.20460719 -10 7 C-8.33720673 5.9935725 -6.67016516 4.99414593 -5 4 C-3.98131338 3.01904252 -2.97648017 2.02297922 -2 1 C-1.34 0.67 -0.68 0.34 0 0 Z " fill="#216AF9" transform="translate(251,432)"/>
<path d="M0 0 C6.93 0 13.86 0 21 0 C20.01 1.485 20.01 1.485 19 3 C17.02880859 3.34057617 17.02880859 3.34057617 14.6484375 3.29296875 C13.79765625 3.28330078 12.946875 3.27363281 12.0703125 3.26367188 C11.18085938 3.23853516 10.29140625 3.21339844 9.375 3.1875 C8.4778125 3.17396484 7.580625 3.16042969 6.65625 3.14648438 C4.43690211 3.11106925 2.21874812 3.06168461 0 3 C0 2.01 0 1.02 0 0 Z " fill="#0692EE" transform="translate(229,381)"/>
<path d="M0 0 C0.66 0.66 1.32 1.32 2 2 C-5.16482362 5.43911534 -12.11614317 5.77135575 -20 5 C-20.99 4.34 -21.98 3.68 -23 3 C-21.38931641 2.92652344 -21.38931641 2.92652344 -19.74609375 2.8515625 C-18.30987358 2.77646602 -16.87367681 2.70092124 -15.4375 2.625 C-14.73302734 2.5940625 -14.02855469 2.563125 -13.30273438 2.53125 C-8.58704259 2.27047442 -4.49614504 1.45341877 0 0 Z " fill="#4F32F3" transform="translate(264,517)"/>
<path d="M0 0 C0.33 0.66 0.66 1.32 1 2 C0.67 2.66 0.34 3.32 0 4 C3.63 4.33 7.26 4.66 11 5 C9 7 9 7 6.6171875 7.1953125 C5.71226562 7.17210937 4.80734375 7.14890625 3.875 7.125 C2.50988281 7.09792969 2.50988281 7.09792969 1.1171875 7.0703125 C0.41851562 7.04710937 -0.28015625 7.02390625 -1 7 C-1.33 7.66 -1.66 8.32 -2 9 C-2.66 9 -3.32 9 -4 9 C-3.814375 8.05125 -3.62875 7.1025 -3.4375 6.125 C-2.71313368 3.10131207 -2.71313368 3.10131207 -4 1 C-2.68 0.67 -1.36 0.34 0 0 Z " fill="#0D0818" transform="translate(196,574)"/>
<path d="M0 0 C0.33 0.66 0.66 1.32 1 2 C-1.66568917 4.90802455 -4.01158899 7.13747858 -7.5 9 C-10.92989365 10.83770875 -13.31521514 13.17009163 -16 16 C-17.31175986 17.02813611 -18.6369893 18.04084432 -20 19 C-16.18252782 10.39160024 -7.62030123 4.99691884 0 0 Z " fill="#01C3F3" transform="translate(182,399)"/>
<path d="M0 0 C0.99 0.33 1.98 0.66 3 1 C2.61328125 1.43570312 2.2265625 1.87140625 1.828125 2.3203125 C-2.97757786 7.815943 -6.96096038 12.86336132 -9 20 C-9.66 19.34 -10.32 18.68 -11 18 C-8.76635758 12.65351548 -6.5467433 7.61076629 -3 3 C-2.34 3 -1.68 3 -1 3 C-0.67 2.01 -0.34 1.02 0 0 Z " fill="#1F67E7" transform="translate(179,503)"/>
<path d="M0 0 C0.66 0.33 1.32 0.66 2 1 C-8.37357631 11.74259681 -8.37357631 11.74259681 -14 15 C-14.33 13.68 -14.66 12.36 -15 11 C-14.01 11 -13.02 11 -12 11 C-10.28288757 8.55503957 -10.28288757 8.55503957 -9 6 C-8.01 6.33 -7.02 6.66 -6 7 C-6 6.34 -6 5.68 -6 5 C-4.04072937 3.2856382 -2.04119788 1.61594832 0 0 Z " fill="#7B0EF4" transform="translate(315,557)"/>
<path d="M0 0 C0.66 0.66 1.32 1.32 2 2 C0.02 6.29 -1.96 10.58 -4 15 C-4.66 15 -5.32 15 -6 15 C-5.50269348 10.02693484 -4.44697666 6.36200187 -2 2 C-1.34 2 -0.68 2 0 2 C0 1.34 0 0.68 0 0 Z " fill="#080C12" transform="translate(148,433)"/>
<path d="M0 0 C0.33 0.99 0.66 1.98 1 3 C-4.37583275 6.98852107 -10.09005505 7.35736166 -16.5625 6.5625 C-17.366875 6.376875 -18.17125 6.19125 -19 6 C-19 5.67 -19 5.34 -19 5 C-18.29875 4.97421875 -17.5975 4.9484375 -16.875 4.921875 C-10.24166173 4.52531673 -5.73793875 3.35615286 0 0 Z " fill="#492BE1" transform="translate(212,550)"/>
<path d="M0 0 C2.46800047 1.15173355 4.04783565 2.04783565 6 4 C6.125 6.625 6.125 6.625 6 9 C6.66 9 7.32 9 8 9 C8.66 10.65 9.32 12.3 10 14 C9.01 14 8.02 14 7 14 C3.55021107 9.96671562 1.39759957 5.08218027 0 0 Z " fill="#3C43F3" transform="translate(154,543)"/>
<path d="M0 0 C1.59385496 3.18770991 0.75129635 5.59027042 0 9 C-1.9375 11.6875 -1.9375 11.6875 -4 14 C-4.70885894 15.31138904 -5.39456452 16.63777017 -6 18 C-7.31092543 14.0672237 -6.31783226 12.74746797 -4.6875 9 C-4.23761719 7.948125 -3.78773438 6.89625 -3.32421875 5.8125 C-2 3 -2 3 0 0 Z " fill="#1B74F6" transform="translate(159,502)"/>
<path d="M0 0 C-11.64 7.76 -11.64 7.76 -20 7 C-19.67 6.34 -19.34 5.68 -19 5 C-17.948125 4.87625 -16.89625 4.7525 -15.8125 4.625 C-11.92680168 4.26012916 -11.92680168 4.26012916 -8.9375 1.9375 C-5.60991866 -0.25728769 -3.90022305 -0.37144981 0 0 Z " fill="#177FF1" transform="translate(263,395)"/>
<path d="M0 0 C0.33 0.99 0.66 1.98 1 3 C-1.89380576 7.17048478 -3.98990293 9.56854369 -9 11 C-9.33 10.01 -9.66 9.02 -10 8 C-8.63875 7.13375 -8.63875 7.13375 -7.25 6.25 C-4.47977054 4.33214884 -2.28054501 2.45597155 0 0 Z " fill="#4538EF" transform="translate(269,493)"/>
<path d="M0 0 C1.64574566 -0.02688151 3.29161413 -0.04634123 4.9375 -0.0625 C5.85402344 -0.07410156 6.77054688 -0.08570313 7.71484375 -0.09765625 C10 0 10 0 11 1 C11.04063832 2.66617115 11.042721 4.33388095 11 6 C10.01 6.495 10.01 6.495 9 7 C9 5.68 9 4.36 9 3 C8.34 3 7.68 3 7 3 C6.67 3.66 6.34 4.32 6 5 C6 4.34 6 3.68 6 3 C4.02 2.34 2.04 1.68 0 1 C0 0.67 0 0.34 0 0 Z " fill="#5728F4" transform="translate(242,528)"/>
<path d="M0 0 C0 0.66 0 1.32 0 2 C-0.99 2.495 -0.99 2.495 -2 3 C0.97 3.33 3.94 3.66 7 4 C7 4.33 7 4.66 7 5 C5.20841511 5.02696365 3.41671527 5.04637917 1.625 5.0625 C0.62726563 5.07410156 -0.37046875 5.08570313 -1.3984375 5.09765625 C-4 5 -4 5 -6 4 C-6 3.01 -6 2.02 -6 1 C-6.66 0.67 -7.32 0.34 -8 0 C-4.71303767 -0.79953138 -3.28976808 -1.09658936 0 0 Z " fill="#0C0E20" transform="translate(278,395)"/>
<path d="M0 0 C0.66 0 1.32 0 2 0 C1.34 5.61 0.68 11.22 0 17 C-3.00617269 13.99382731 -2.59585316 11.17618402 -3 7 C-2.67 7 -2.34 7 -2 7 C-1.34 4.69 -0.68 2.38 0 0 Z " fill="#158AF0" transform="translate(145,510)"/>
<path d="M0 0 C-1.75 3.875 -1.75 3.875 -4 5 C-6.01927511 4.39421747 -8.02253397 3.73080266 -10 3 C-6.81859267 -0.48439851 -4.56758339 -1.41752588 0 0 Z " fill="#3248F0" transform="translate(256,491)"/>
<path d="M0 0 C6.70126536 -0.48736475 11.06561592 0.92291196 17 4 C16.67 4.66 16.34 5.32 16 6 C14.7625 5.5359375 14.7625 5.5359375 13.5 5.0625 C10.71967739 4.21847349 8.5877776 3.81106446 5.75 3.5625 C3.89375 3.2840625 3.89375 3.2840625 2 3 C1.34 2.01 0.68 1.02 0 0 Z " fill="#141414" transform="translate(880,471)"/>
<path d="M0 0 C1.41702513 0.14230808 2.8336096 0.28900746 4.25 0.4375 C5.43335938 0.55931641 5.43335938 0.55931641 6.640625 0.68359375 C8.82364639 0.97634993 10.8773182 1.42064419 13 2 C13 2.66 13 3.32 13 4 C11.22950311 4.05410687 9.45853151 4.09284119 7.6875 4.125 C6.20830078 4.15980469 6.20830078 4.15980469 4.69921875 4.1953125 C2 4 2 4 -1 2 C-0.67 1.34 -0.34 0.68 0 0 Z " fill="#4E28E8" transform="translate(190,570)"/>
<path d="M0 0 C1.77119803 0.14133499 3.54195287 0.28823208 5.3125 0.4375 C6.29863281 0.51871094 7.28476563 0.59992187 8.30078125 0.68359375 C11 1 11 1 14 2 C13.67 3.32 13.34 4.64 13 6 C11.20591668 5.3819713 9.41479522 4.75533919 7.625 4.125 C6.62726563 3.77695312 5.62953125 3.42890625 4.6015625 3.0703125 C2 2 2 2 0 0 Z " fill="#4B31EE" transform="translate(174,567)"/>
<path d="M0 0 C0.66 0.33 1.32 0.66 2 1 C-2.99641577 6.84946237 -2.99641577 6.84946237 -7.75 7.5625 C-9.35875 7.2840625 -9.35875 7.2840625 -11 7 C-11.66 6.01 -12.32 5.02 -13 4 C-10.03 4 -7.06 4 -4 4 C-4 3.34 -4 2.68 -4 2 C-2.125 0.9375 -2.125 0.9375 0 0 Z " fill="#1973F2" transform="translate(236,447)"/>
<path d="M0 0 C3.3 0 6.6 0 10 0 C5.375 4 5.375 4 2 4 C0.66018514 4.3062434 -0.67511887 4.63451555 -2 5 C-1.34 3.35 -0.68 1.7 0 0 Z " fill="#5C23F6" transform="translate(227,571)"/>
<path d="M0 0 C-0.66 0 -1.32 0 -2 0 C-2 1.98 -2 3.96 -2 6 C-4.97 5.505 -4.97 5.505 -8 5 C-8 3.35 -8 1.7 -8 0 C-4.71303767 -0.79953138 -3.28976808 -1.09658936 0 0 Z " fill="#0A0E18" transform="translate(231,455)"/>
<path d="M0 0 C0 4.31618166 -2.13270348 5.92789659 -5 9 C-5.66 9 -6.32 9 -7 9 C-7.33 10.32 -7.66 11.64 -8 13 C-8.66 12.01 -9.32 11.02 -10 10 C-6.7 6.7 -3.4 3.4 0 0 Z " fill="#0A7EF9" transform="translate(181,479)"/>
<path d="M0 0 C1.60463449 0.31008884 3.20869231 0.62316287 4.8125 0.9375 C5.70582031 1.11152344 6.59914063 1.28554688 7.51953125 1.46484375 C10 2 10 2 13 3 C13 3.66 13 4.32 13 5 C6.42528736 4.11494253 6.42528736 4.11494253 3.6875 3.375 C1.89389066 2.79030774 1.89389066 2.79030774 0 4 C0 2.68 0 1.36 0 0 Z " fill="#2E5BF1" transform="translate(288,400)"/>
<path d="M0 0 C3.3 1.65 6.6 3.3 10 5 C10 5.33 10 5.66 10 6 C7.36 6 4.72 6 2 6 C2.33 5.01 2.66 4.02 3 3 C1.68 2.34 0.36 1.68 -1 1 C-0.67 0.67 -0.34 0.34 0 0 Z " fill="#2369F0" transform="translate(274,387)"/>
<path d="M0 0 C4 5 4 5 8 10 C4.47967572 10 3.5614657 9.29648649 1 7 C1 6.34 1 5.68 1 5 C0.34 5 -0.32 5 -1 5 C-0.67 3.35 -0.34 1.7 0 0 Z " fill="#3840E9" transform="translate(171,539)"/>
<path d="M0 0 C3.25669165 3.08065427 6.10679924 5.89806503 8 10 C7.6875 12.3125 7.6875 12.3125 7 14 C6.71125 13.195625 6.4225 12.39125 6.125 11.5625 C5.26737432 8.8673532 5.26737432 8.8673532 3 8 C1.82513503 5.37383124 0.90985138 2.72955415 0 0 Z " fill="#4D35F1" transform="translate(316,416)"/>
<path d="M0 0 C3.63 0 7.26 0 11 0 C10.67 0.99 10.34 1.98 10 3 C5.06071112 3.3367697 4.21507278 3.16130459 0 0 Z " fill="#5D1DF9" transform="translate(236,573)"/>
<path d="M0 0 C1.65 0 3.3 0 5 0 C5 0.99 5 1.98 5 3 C4.34 3 3.68 3 3 3 C2.34 4.32 1.68 5.64 1 7 C0.67 7 0.34 7 0 7 C0 4.69 0 2.38 0 0 Z " fill="#111111" transform="translate(836,475)"/>
<path d="M0 0 C0.66 0 1.32 0 2 0 C2.33 0.99 2.66 1.98 3 3 C1.35 4.65 -0.3 6.3 -2 8 C-2.99 7.67 -3.98 7.34 -5 7 C-4.360625 6.21625 -3.72125 5.4325 -3.0625 4.625 C-1.01857687 2.20460719 -1.01857687 2.20460719 0 0 Z " fill="#4A31E8" transform="translate(307,453)"/>
<path d="M0 0 C2.31 1.65 4.62 3.3 7 5 C6.34 5.66 5.68 6.32 5 7 C2.375 6.625 2.375 6.625 0 6 C0 4.02 0 2.04 0 0 Z " fill="#2B5AF8" transform="translate(232,494)"/>
<path d="M0 0 C0.33 0 0.66 0 1 0 C2.10228696 4.40914783 2.07654536 8.48382401 2 13 C-0.43773135 10.56226865 -0.61487376 9.38911094 -1 6 C-0.5625 2.6875 -0.5625 2.6875 0 0 Z " fill="#0F87F5" transform="translate(140,503)"/>
<path d="M0 0 C2.09907691 4.19815383 2.21812126 4.79194474 1 9 C0.67 9.66 0.34 10.32 0 11 C-0.66 11 -1.32 11 -2 11 C-1.34 7.37 -0.68 3.74 0 0 Z " fill="#6615E3" transform="translate(324,502)"/>
<path d="M0 0 C3.875 1.75 3.875 1.75 5 4 C5.039992 5.99960012 5.04346799 8.00047242 5 10 C3 9 3 9 2.1484375 6.93359375 C1.89320313 6.10988281 1.63796875 5.28617187 1.375 4.4375 C1.11460937 3.61121094 0.85421875 2.78492188 0.5859375 1.93359375 C0.39257812 1.29550781 0.19921875 0.65742188 0 0 Z " fill="#171717" transform="translate(619,501)"/>
<path d="M0 0 C0.99 0 1.98 0 3 0 C1.50902342 3.7952131 -0.75700849 5.61042731 -4 8 C-3.40353695 4.65980694 -2.31705841 2.49529367 0 0 Z " fill="#4E27E4" transform="translate(285,501)"/>
<path d="M0 0 C0.99 0 1.98 0 3 0 C1.60667426 3.36720387 0.0210714 4.9859524 -3 7 C-2.25 2.25 -2.25 2.25 0 0 Z " fill="#01B3F0" transform="translate(176,424)"/>
<path d="M0 0 C0.99 0.33 1.98 0.66 3 1 C3 1.66 3 2.32 3 3 C1.04072937 4.7143618 -0.95880212 6.38405168 -3 8 C-3 4.42424104 -1.91159393 2.94704065 0 0 Z " fill="#166AEF" transform="translate(244,415)"/>
<path d="M0 0 C3.3 0.99 6.6 1.98 10 3 C6.52674819 4.1577506 3.63932552 4.06866652 0 4 C-0.33 3.01 -0.66 2.02 -1 1 C-0.67 0.67 -0.34 0.34 0 0 Z " fill="#187AF5" transform="translate(264,384)"/>
<path d="M0 0 C1.32 0.33 2.64 0.66 4 1 C3.1875 2.9375 3.1875 2.9375 2 5 C1.01 5.33 0.02 5.66 -1 6 C-1.33 5.01 -1.66 4.02 -2 3 C-1.34 2.01 -0.68 1.02 0 0 Z " fill="#1278F0" transform="translate(161,498)"/>
<path d="M0 0 C2.50298434 2.93828597 3.46930939 5.17902761 4 9 C2.68 8.67 1.36 8.34 0 8 C0 5.36 0 2.72 0 0 Z " fill="#6021E9" transform="translate(334,442)"/>
<path d="M0 0 C0.66 0 1.32 0 2 0 C1.38461538 6.52307692 1.38461538 6.52307692 -0.5625 8.9375 C-1.036875 9.288125 -1.51125 9.63875 -2 10 C-1.54177532 6.53058454 -1.10868317 3.32604951 0 0 Z " fill="#02BBF2" transform="translate(144,445)"/>
<path d="M0 0 C2.9719385 1.12451727 5.33440687 2.22293791 8 4 C4.37673261 5.2077558 3.35853631 4.54311128 0 3 C0 2.01 0 1.02 0 0 Z " fill="#433BED" transform="translate(179,550)"/>
<path d="M0 0 C0.99 0.99 1.98 1.98 3 3 C2.79846293 5.84875378 1.85624823 8.25099253 1 11 C0.67 11 0.34 11 0 11 C0 7.37 0 3.74 0 0 Z " fill="#010101" transform="translate(542,503)"/>
<path d="M0 0 C1.98 0.99 1.98 0.99 4 2 C2.25 5.875 2.25 5.875 0 7 C0 4.69 0 2.38 0 0 Z " fill="#232323" transform="translate(482,475)"/>
</svg>
