<?xml version="1.0" encoding="UTF-8"?>
<svg version="1.1" xmlns="http://www.w3.org/2000/svg" width="1024" height="1024">
<path d="M0 0 C337.92 0 675.84 0 1024 0 C1024 337.92 1024 675.84 1024 1024 C686.08 1024 348.16 1024 0 1024 C0 686.08 0 348.16 0 0 Z " fill="#1A1935" transform="translate(0,0)"/>
<path d="M0 0 C19.02875204 14.60657727 32.71309943 34.47738209 36.9921875 58.3515625 C38.7822429 75.71872698 39.15277387 95.19158535 33.3515625 111.77734375 C32.98933594 112.83953125 32.62710938 113.90171875 32.25390625 114.99609375 C27.57611553 127.30106187 20.00986007 137.96355126 11.3515625 147.77734375 C10.80113281 148.4115625 10.25070313 149.04578125 9.68359375 149.69921875 C-2.37207952 162.67767195 -20.63652798 171.638723 -37.6484375 175.77734375 C-38.56238281 176.00164062 -39.47632813 176.2259375 -40.41796875 176.45703125 C-62.43748041 180.95332314 -89.41083949 177.66704718 -108.6484375 165.77734375 C-113.12257207 162.60656785 -117.40256662 159.24494345 -121.6484375 155.77734375 C-122.46570313 155.12765625 -123.28296875 154.47796875 -124.125 153.80859375 C-141.03953134 139.70318952 -152.60598561 117.42795913 -155.36328125 95.6640625 C-157.66681031 64.26664591 -151.73250412 37.94970957 -131.15234375 13.5390625 C-97.62099484 -23.4448122 -40.38636424 -29.95481518 0 0 Z " fill="#141930" transform="translate(243.6484375,427.22265625)"/>
<path d="M0 0 C19.02875204 14.60657727 32.71309943 34.47738209 36.9921875 58.3515625 C38.7822429 75.71872698 39.15277387 95.19158535 33.3515625 111.77734375 C32.98933594 112.83953125 32.62710938 113.90171875 32.25390625 114.99609375 C27.57611553 127.30106187 20.00986007 137.96355126 11.3515625 147.77734375 C10.80113281 148.4115625 10.25070313 149.04578125 9.68359375 149.69921875 C-2.37207952 162.67767195 -20.63652798 171.638723 -37.6484375 175.77734375 C-38.56238281 176.00164062 -39.47632813 176.2259375 -40.41796875 176.45703125 C-62.43748041 180.95332314 -89.41083949 177.66704718 -108.6484375 165.77734375 C-113.12257207 162.60656785 -117.40256662 159.24494345 -121.6484375 155.77734375 C-122.46570313 155.12765625 -123.28296875 154.47796875 -124.125 153.80859375 C-141.03953134 139.70318952 -152.60598561 117.42795913 -155.36328125 95.6640625 C-157.66681031 64.26664591 -151.73250412 37.94970957 -131.15234375 13.5390625 C-97.62099484 -23.4448122 -40.38636424 -29.95481518 0 0 Z M-118.328125 28.14453125 C-132.00926243 43.66824612 -136.7972763 62.4208297 -136.8984375 82.58984375 C-136.9190625 83.60626953 -136.9396875 84.62269531 -136.9609375 85.66992188 C-136.99746468 92.83381433 -135.90182382 98.98716632 -133.6484375 105.77734375 C-133.42397949 106.46143311 -133.19952148 107.14552246 -132.96826172 107.8503418 C-129.78008604 117.06076139 -125.51111625 124.96043875 -119.6484375 132.77734375 C-119.12894531 133.504375 -118.60945313 134.23140625 -118.07421875 134.98046875 C-108.68385994 146.9963435 -89.75223628 156.52087428 -74.90673828 158.57080078 C-69.74811991 159.04260523 -64.57523807 159.06459986 -59.3984375 159.08984375 C-57.72841675 159.09830322 -57.72841675 159.09830322 -56.0246582 159.10693359 C-35.71148972 158.92780245 -18.02568441 150.89306017 -3.5078125 136.79296875 C13.44089674 119.48123495 18.6640625 98.4260058 18.6640625 75.11206055 C18.42312351 54.72670552 10.75857783 36.55630386 -3.47265625 21.8984375 C-11.55095059 14.32821199 -21.04500429 9.05145188 -31.3984375 5.33984375 C-32.08284912 5.09290771 -32.76726074 4.84597168 -33.47241211 4.59155273 C-64.81113158 -5.95993888 -96.0982619 5.35717942 -118.328125 28.14453125 Z " fill="#FBFBFC" transform="translate(243.6484375,427.22265625)"/>
<path d="M0 0 C7.84081886 6.96961677 11.5855604 14.35537823 12.23828125 24.8203125 C12.51935756 35.69153758 11.84003253 44.76166428 4.5625 53.4375 C-0.50957915 58.7258725 -4.94842066 62.60584183 -12.453125 63.3359375 C-21.76965245 63.43178655 -28.18262504 62.21158331 -36 57 C-36 67.89 -36 78.78 -36 90 C-41.28 90 -46.56 90 -52 90 C-54.63061098 87.36938902 -54.23617047 85.49272026 -54.24884033 81.91271973 C-54.24164978 81.05964233 -54.23445923 80.20656494 -54.22705078 79.32763672 C-54.22734283 78.43001617 -54.22763489 77.53239563 -54.22793579 76.60757446 C-54.22653903 73.63151485 -54.21096156 70.65570355 -54.1953125 67.6796875 C-54.1915836 65.61988461 -54.18873605 63.56007995 -54.18673706 61.50027466 C-54.1790909 56.0717888 -54.15943399 50.6434095 -54.1373291 45.21496582 C-54.1168918 39.67848146 -54.10773988 34.14197993 -54.09765625 28.60546875 C-54.07618902 17.73693228 -54.04204126 6.86847499 -54 -4 C-48.72 -4 -43.44 -4 -38 -4 C-37.67 -2.68 -37.34 -1.36 -37 0 C-36.39671875 -0.34933594 -35.7934375 -0.69867188 -35.171875 -1.05859375 C-34.37265625 -1.51363281 -33.5734375 -1.96867187 -32.75 -2.4375 C-31.56664062 -3.11619141 -31.56664062 -3.11619141 -30.359375 -3.80859375 C-20.11868841 -8.97980138 -9.04852551 -6.22804013 0 0 Z " fill="#FAFAFB" transform="translate(668,489)"/>
<path d="M0 0 C0.89162842 -0.01998047 1.78325684 -0.03996094 2.7019043 -0.06054688 C9.14743693 0.05947049 13.2224485 1.76360142 18.3125 5.6875 C17.35704634 7.14772163 16.39803322 8.60561468 15.4375 10.0625 C14.90382813 10.87460937 14.37015625 11.68671875 13.8203125 12.5234375 C12.3125 14.6875 12.3125 14.6875 10.3125 16.6875 C8.2049118 16.54346678 6.10080705 16.34699852 4 16.125 C-2.26035149 16.07691042 -4.90671033 16.96770434 -9.7109375 21.26953125 C-10.25803879 21.75504456 -10.80514008 22.24055786 -11.36882019 22.74078369 C-18.52191449 29.18165751 -25.25444576 36.07647145 -32 42.9375 C-34.5968197 45.57112905 -37.19709577 48.20128368 -39.80078125 50.828125 C-40.41249176 51.44610458 -41.02420227 52.06408417 -41.65444946 52.70079041 C-45.36391142 56.42612324 -49.14205317 60.00138207 -53.2097168 63.33911133 C-56.91763096 66.72236094 -58.88124857 70.71599216 -59.1875 75.75 C-58.54795101 80.78644833 -56.95848092 83.90315785 -52.9375 87.0625 C-47.74950873 88.50360868 -44.1954114 88.45044491 -39.45214844 86.05053711 C-35.43825022 83.70094768 -32.3780689 80.74458255 -29.16015625 77.41796875 C-28.56754501 76.818741 -27.97493378 76.21951324 -27.36436462 75.60212708 C-25.48558778 73.70013275 -23.61731498 71.78824247 -21.75 69.875 C-19.28638861 67.36469417 -16.81840436 64.85874969 -14.34765625 62.35546875 C-13.75760803 61.7567395 -13.16755981 61.15801025 -12.55963135 60.5411377 C-8.96182256 56.91060651 -5.27841826 53.45303543 -1.37573242 50.14868164 C1.46478 47.69019041 4.06694188 45.00112456 6.6875 42.3125 C12.93884356 35.90603625 12.93884356 35.90603625 17.0625 35.25 C21.04397839 35.78596824 22.6073655 36.95924622 25.2265625 39.91796875 C26.3125 41.6875 26.3125 41.6875 26.625 45.0625 C23.81401418 52.82617511 16.45812786 58.69235496 10.69140625 64.44140625 C9.98781479 65.14595444 9.28422333 65.85050262 8.55931091 66.57640076 C7.08235352 68.05403367 5.60415258 69.53042457 4.12475586 71.00561523 C1.88084915 73.24416481 -0.35766704 75.48800473 -2.59570312 77.73242188 C-4.04134618 79.17740404 -5.48729945 80.62207592 -6.93359375 82.06640625 C-7.5921788 82.72701553 -8.25076385 83.38762482 -8.92930603 84.06825256 C-12.78878022 87.90864293 -16.75381472 91.5677501 -20.88661194 95.11289978 C-22.64514114 96.65046368 -24.32268348 98.24987342 -26 99.875 C-32.14599159 105.08512469 -40.15080765 107.45994042 -48.1484375 107.06640625 C-56.7697156 105.77984629 -63.98071096 102.34990702 -69.6875 95.6875 C-74.15974884 88.73211299 -74.9508886 82.23618974 -75.125 74.125 C-75.19364258 72.85946289 -75.19364258 72.85946289 -75.26367188 71.56835938 C-75.43098807 61.98768873 -71.22772416 55.18099533 -64.78764343 48.30455017 C-62.34692109 45.79525991 -59.83397947 43.36514579 -57.3125 40.9375 C-56.29836595 39.93993252 -55.28533914 38.94123814 -54.2734375 37.94140625 C-49.50037959 33.24835973 -44.62669274 28.7163743 -39.546875 24.35498047 C-36.84325525 21.9303845 -34.3625353 19.3117719 -31.85668945 16.68554688 C-21.84881547 6.2794293 -14.83829114 0.29709878 0 0 Z " fill="#FBFBFB" transform="translate(208.6875,450.3125)"/>
<path d="M0 0 C1.8671875 1.37890625 1.8671875 1.37890625 5.8671875 5.37890625 C2.2371875 9.33890625 -1.3928125 13.29890625 -5.1328125 17.37890625 C-10.1328125 15.37890625 -10.1328125 15.37890625 -12.421875 14.30859375 C-18.66466957 11.48994068 -24.29609219 10.28588827 -31.1328125 11.37890625 C-34.27922739 12.69916661 -36.56773105 14.24874335 -38.1328125 17.37890625 C-38.40624143 19.45237418 -38.40624143 19.45237418 -38.4453125 21.75390625 C-38.48269531 22.52476562 -38.52007813 23.295625 -38.55859375 24.08984375 C-37.95942637 27.31105556 -36.69152758 28.37884397 -34.1328125 30.37890625 C-31.39728717 31.54104922 -31.39728717 31.54104922 -28.3203125 32.31640625 C-27.175625 32.64898437 -26.0309375 32.9815625 -24.8515625 33.32421875 C-22.9649141 33.8592976 -21.07825968 34.39435556 -19.19140625 34.92871094 C-9.02341757 37.86489455 -1.11684797 41.28777544 4.8671875 50.37890625 C8.18104674 58.43002735 8.21489024 67.80688764 5.1171875 75.94140625 C1.47241583 83.64569947 -3.44817685 87.75948531 -11.1328125 91.37890625 C-25.01845843 95.58321099 -38.9889877 94.35903507 -52.1328125 88.37890625 C-56.68730915 85.89011027 -60.23406585 83.72702623 -63.1328125 79.37890625 C-59.1728125 75.41890625 -55.2128125 71.45890625 -51.1328125 67.37890625 C-47.1328125 69.37890625 -47.1328125 69.37890625 -44.4453125 71.31640625 C-36.74704108 76.10966959 -29.1505025 77.35379166 -20.1328125 76.37890625 C-16.62845168 75.04966594 -14.7494041 73.99549785 -12.1328125 71.37890625 C-11.66035921 68.88807457 -11.66035921 68.88807457 -11.6328125 66.06640625 C-11.58125 65.12152344 -11.5296875 64.17664063 -11.4765625 63.203125 C-12.24020886 59.91671833 -13.50911765 58.48465281 -16.19824219 56.47973633 C-19.89325221 54.37716185 -23.91312846 53.42539311 -28.0078125 52.37890625 C-38.89389555 49.57170043 -48.06222288 45.00722691 -54.45703125 35.38671875 C-58.11194388 28.38467561 -58.47772263 20.38076301 -56.4375 12.79296875 C-52.94659878 4.19772457 -47.82242156 -0.76087267 -39.5 -4.67578125 C-27.13902362 -9.61201274 -11.18620368 -6.59420178 0 0 Z " fill="#FBFBFC" transform="translate(600.1328125,459.62109375)"/>
<path d="M0 0 C16 0 16 0 18 1 C18 12.55 18 24.1 18 36 C21.3 34.02 24.6 32.04 28 30 C34.93981083 27.68672972 42.79942856 27.98558239 49.4375 31.0625 C56.76970464 35.29994294 60.80304772 40.79703457 63 49 C63.38592996 52.76756492 63.35105676 56.49727448 63.29296875 60.28125 C63.28872391 61.33534058 63.28447906 62.38943115 63.28010559 63.47546387 C63.26341405 66.81724405 63.22577909 70.1584044 63.1875 73.5 C63.17244088 75.77603291 63.15875463 78.05207535 63.14648438 80.328125 C63.11354181 85.88562546 63.06343806 91.44276842 63 97 C60.54137599 97.05383848 58.0839245 97.09359038 55.625 97.125 C54.92632813 97.14175781 54.22765625 97.15851563 53.5078125 97.17578125 C51.67102514 97.19344267 49.83398037 97.10303261 48 97 C45.30033223 94.30033223 45.75461303 92.19111103 45.72354126 88.52374268 C45.72453827 87.63418884 45.72553528 86.74463501 45.7265625 85.828125 C45.70626527 83.9479108 45.68541434 82.06770252 45.6640625 80.1875 C45.64149719 77.22065254 45.62500799 74.25403858 45.61914062 71.28710938 C45.60959506 68.42535027 45.57578245 65.5646467 45.5390625 62.703125 C45.54410797 61.82166809 45.54915344 60.94021118 45.55435181 60.03204346 C45.46497572 54.41227609 44.67536801 51.31639064 41 47 C38.23208311 45.61604155 35.90174392 45.75504388 32.8125 45.6875 C31.15154297 45.63142578 31.15154297 45.63142578 29.45703125 45.57421875 C25.28731717 46.08777676 21.96432834 46.96357071 19 50 C17.94325108 53.53919864 18.04570127 57.00019422 18.09765625 60.671875 C18.07921913 62.22820648 18.07921913 62.22820648 18.06040955 63.815979 C18.02863059 67.12803495 18.04497171 70.43787356 18.0625 73.75 C18.04939416 75.99611449 18.03315592 78.24221304 18.01367188 80.48828125 C17.97277469 85.99251898 17.97137264 91.49570853 18 97 C15.37493198 97.02690844 12.75013827 97.04679404 10.125 97.0625 C9.37863281 97.07087891 8.63226562 97.07925781 7.86328125 97.08789062 C2.2265625 97.11328125 2.2265625 97.11328125 0 96 C0 64.32 0 32.64 0 0 Z " fill="#FBFBFC" transform="translate(687,454)"/>
<path d="M0 0 C2.62527189 -0.05382106 5.24944713 -0.09358313 7.875 -0.125 C8.62136719 -0.14175781 9.36773437 -0.15851563 10.13671875 -0.17578125 C12.09194461 -0.1933959 14.04742021 -0.10320189 16 0 C18 2 18 2 18.24050903 4.13870239 C18.2338472 5.4644075 18.2338472 5.4644075 18.22705078 6.81689453 C18.22689972 7.81778107 18.22674866 8.8186676 18.22659302 9.84988403 C18.21627045 10.93325043 18.20594788 12.01661682 18.1953125 13.1328125 C18.1924826 14.23978485 18.18965271 15.3467572 18.18673706 16.48727417 C18.17551519 20.03329137 18.15040691 23.57905875 18.125 27.125 C18.1149728 29.52473594 18.1058465 31.92447583 18.09765625 34.32421875 C18.07556932 40.21623151 18.04207207 46.10809791 18 52 C20.92827654 49.12408089 23.72700021 46.24749313 26.296875 43.046875 C26.86277344 42.345625 27.42867188 41.644375 28.01171875 40.921875 C28.58535156 40.20515625 29.15898437 39.4884375 29.75 38.75 C30.91104091 37.30695572 32.07247791 35.86423 33.234375 34.421875 C33.74194336 33.78862305 34.24951172 33.15537109 34.77246094 32.50292969 C36 31 36 31 37 30 C38.34267413 29.91368126 39.68974322 29.89293527 41.03515625 29.90234375 C41.84404297 29.90556641 42.65292969 29.90878906 43.48632812 29.91210938 C44.33646484 29.92048828 45.18660156 29.92886719 46.0625 29.9375 C46.91650391 29.94201172 47.77050781 29.94652344 48.65039062 29.95117188 C50.76695663 29.96299627 52.88348685 29.98093231 55 30 C54.19619848 33.65023842 52.87175439 35.85792982 50.625 38.875 C49.91859375 39.8340625 49.2121875 40.793125 48.484375 41.78125 C46.70320269 44.12875881 44.8474206 46.39921694 42.953125 48.65625 C42.44313965 49.27387207 41.9331543 49.89149414 41.40771484 50.52783203 C40.39766479 51.74510484 39.37213715 52.94972311 38.33056641 54.14013672 C36.7271806 55.99916071 36.7271806 55.99916071 35 59 C35.72508725 63.37085307 38.83490191 66.79760955 41.4375 70.3125 C42.3319286 71.54340016 43.22510714 72.77520941 44.1171875 74.0078125 C44.58479492 74.65266602 45.05240234 75.29751953 45.53417969 75.96191406 C48.08494692 79.50851713 50.57798963 83.09429483 53.0625 86.6875 C53.53937256 87.37046143 54.01624512 88.05342285 54.50756836 88.75708008 C56.38812641 91.48250171 57.94716388 93.84149165 59 97 C53.69868456 97.41678128 48.41586099 97.6505147 43.09765625 97.53515625 C41.78293335 97.51014038 41.78293335 97.51014038 40.44165039 97.48461914 C37.38250472 96.87743944 36.03503954 95.71027302 33.875 93.5 C32.88868286 91.6815687 31.93550392 89.84508707 31 88 C29.08246256 85.14392702 27.06207994 82.3615357 25.0625 79.5625 C24.0876237 78.17315156 23.11964206 76.77892763 22.16015625 75.37890625 C21.53572632 74.47507202 21.53572632 74.47507202 20.89868164 73.55297852 C20 72 20 72 20 70 C19.34 70 18.68 70 18 70 C18 78.91 18 87.82 18 97 C15.40125 97.04125 12.8025 97.0825 10.125 97.125 C8.89934326 97.15231201 8.89934326 97.15231201 7.64892578 97.18017578 C5.76504951 97.19477217 3.88130688 97.09943482 2 97 C-0.66639907 94.33360093 -0.23641421 92.34755442 -0.24884033 88.72233582 C-0.24164978 87.84120621 -0.23445923 86.9600766 -0.22705078 86.05224609 C-0.22734283 85.12536484 -0.22763489 84.19848358 -0.22793579 83.24351501 C-0.22653889 80.17006166 -0.21096075 77.09684867 -0.1953125 74.0234375 C-0.19158365 71.89637382 -0.18873608 69.76930844 -0.18673706 67.64224243 C-0.17909052 62.03620688 -0.15943327 56.4302745 -0.1373291 50.82427979 C-0.11689264 45.10682572 -0.10774006 39.38935504 -0.09765625 33.671875 C-0.07618834 22.44787127 -0.0420401 11.2239442 0 0 Z " fill="#FBFBFC" transform="translate(480,454)"/>
<path d="M0 0 C6.60706961 7.23631434 9.77167536 14.88445005 9.75 24.5625 C9.75386719 26.30080078 9.75386719 26.30080078 9.7578125 28.07421875 C9.625 30.875 9.625 30.875 8.625 31.875 C7.24449142 31.99697808 5.85802353 32.05268899 4.47241211 32.08032227 C3.15115578 32.1102401 3.15115578 32.1102401 1.8032074 32.14076233 C0.84592239 32.15747482 -0.11136261 32.17418732 -1.09765625 32.19140625 C-2.56047279 32.2225779 -2.56047279 32.2225779 -4.05284119 32.25437927 C-7.1809863 32.31998412 -10.30921822 32.37881028 -13.4375 32.4375 C-15.5527435 32.48067483 -17.66797809 32.52428877 -19.78320312 32.56835938 C-24.98037587 32.67567655 -30.17763577 32.7774222 -35.375 32.875 C-34.93337129 34.3269532 -34.48071823 35.77555627 -34.0234375 37.22265625 C-33.64711182 38.43320679 -33.64711182 38.43320679 -33.26318359 39.66821289 C-31.64879612 43.6793312 -28.70866851 45.1540981 -25.0625 47.125 C-17.65183764 49.19309182 -13.08101463 47.66053716 -6.4765625 44.1640625 C-4.26371719 42.91907315 -4.26371719 42.91907315 -2.375 40.875 C1.06421093 41.21458595 3.20514276 42.84611183 5.875 44.9375 C6.58140625 45.48535156 7.2878125 46.03320312 8.015625 46.59765625 C8.54671875 47.01917969 9.0778125 47.44070313 9.625 47.875 C6.76641115 54.25185204 1.79826903 57.60373119 -4.5625 60.1875 C-14.47893333 63.88859401 -24.80731597 64.45608022 -34.73828125 60.32421875 C-43.24006392 55.65138709 -49.12313455 49.01047317 -52.375 39.875 C-54.76059633 30.76356112 -54.92646585 18.26270135 -50.375 9.875 C-45.40420755 1.64557694 -39.01253642 -2.42878693 -30.5 -6.5 C-18.92572591 -8.81485482 -9.87140021 -6.21532606 0 0 Z " fill="#FAFAFB" transform="translate(922.375,490.125)"/>
<path d="M0 0 C6.21040366 4.9011208 9.31340666 11.12381373 11.78125 18.52734375 C11.78125 23.47734375 11.78125 28.42734375 11.78125 33.52734375 C-3.06875 33.52734375 -17.91875 33.52734375 -33.21875 33.52734375 C-30.20421062 43.14684154 -30.20421062 43.14684154 -22.96875 48.83984375 C-15.34017159 50.74698835 -10.25157338 49.5463718 -3.48046875 45.62109375 C-1.21875 44.52734375 -1.21875 44.52734375 2.78125 44.52734375 C4.703125 45.83984375 4.703125 45.83984375 6.53125 47.52734375 C7.14484375 48.08421875 7.7584375 48.64109375 8.390625 49.21484375 C8.84953125 49.64796875 9.3084375 50.08109375 9.78125 50.52734375 C8.43206286 55.24949876 5.84657451 57.94194 1.78125 60.52734375 C-8.27976712 65.20958633 -19.64026494 66.32239818 -30.21875 62.52734375 C-38.16019182 58.91759747 -44.55905851 53.74053839 -48.05493164 45.57397461 C-51.58208468 35.99847341 -52.02038935 24.60947375 -49.1171875 14.80859375 C-44.81100342 5.68961571 -38.68535328 -0.8421651 -29.21875 -4.47265625 C-19.12311752 -7.63949675 -8.66073086 -5.74840763 0 0 Z " fill="#FBFAFB" transform="translate(807.21875,488.47265625)"/>
<path d="M0 0 C5.95999463 4.61128895 8.75346135 11.72814053 10 19 C10.64281552 26.72746724 10.37852792 34.50558628 10.25 42.25 C10.22990146 44.3632643 10.21165664 46.47654708 10.1953125 48.58984375 C10.15158962 53.72702508 10.08274725 58.86330512 10 64 C7.37472811 64.05382106 4.75055287 64.09358313 2.125 64.125 C1.37863281 64.14175781 0.63226563 64.15851563 -0.13671875 64.17578125 C-2.09194461 64.1933959 -4.04742021 64.10320189 -6 64 C-8.3800932 61.6199068 -8.24990193 61.13898897 -8.25537109 57.9050293 C-8.26233002 57.06042648 -8.26928894 56.21582367 -8.27645874 55.34562683 C-8.27546173 54.43106216 -8.27446472 53.5164975 -8.2734375 52.57421875 C-8.29373111 50.64387446 -8.31458198 48.71353596 -8.3359375 46.78320312 C-8.35852545 43.73505782 -8.37500069 40.68714111 -8.38085938 37.63891602 C-8.39038731 34.70026116 -8.42417523 31.76264154 -8.4609375 28.82421875 C-8.45589203 27.91572678 -8.45084656 27.0072348 -8.44564819 26.07121277 C-8.51103297 21.86089485 -8.63111027 19.58976116 -10.90869141 15.94848633 C-14.33649533 12.75477829 -16.63258656 12.78764938 -21.25 12.6875 C-22.92835938 12.63142578 -22.92835938 12.63142578 -24.640625 12.57421875 C-28.98151232 13.12440098 -30.77807074 14.00488526 -34 17 C-34.91335854 20.54340559 -34.83757423 24.02869596 -34.8046875 27.671875 C-34.81839386 28.70942932 -34.83210022 29.74698364 -34.84622192 30.815979 C-34.88359296 34.12775756 -34.87980203 37.43804011 -34.875 40.75 C-34.89312168 42.99611726 -34.91392269 45.24221463 -34.9375 47.48828125 C-34.9894172 52.99233441 -35.0075511 58.49572454 -35 64 C-37.62527189 64.05382106 -40.24944713 64.09358313 -42.875 64.125 C-43.62136719 64.14175781 -44.36773437 64.15851563 -45.13671875 64.17578125 C-47.09194461 64.1933959 -49.04742021 64.10320189 -51 64 C-53 62 -53 62 -53.24050903 59.32980347 C-53.23606781 58.19729156 -53.23162659 57.06477966 -53.22705078 55.89794922 C-53.22689972 54.61677216 -53.22674866 53.33559509 -53.22659302 52.01559448 C-53.21637895 50.61195726 -53.20594695 49.2083216 -53.1953125 47.8046875 C-53.19158291 46.37265215 -53.18873569 44.94061425 -53.18673706 43.50857544 C-53.17909627 39.73721283 -53.15944408 35.96600396 -53.1373291 32.19470215 C-53.11688019 28.34727051 -53.1077374 24.49981406 -53.09765625 20.65234375 C-53.07619848 13.10148425 -53.04101286 5.55078324 -53 -2 C-47.72 -2 -42.44 -2 -37 -2 C-36.34 -0.35 -35.68 1.3 -35 3 C-33.96875 2.21625 -32.9375 1.4325 -31.875 0.625 C-22.30635125 -6.09017496 -10.01315579 -5.99001284 0 0 Z " fill="#F9F9FA" transform="translate(462,487)"/>
<path d="M0 0 C2.79192205 -0.05380578 5.5828141 -0.09357669 8.375 -0.125 C9.1690625 -0.14175781 9.963125 -0.15851563 10.78125 -0.17578125 C12.85492015 -0.19335473 14.92883241 -0.10335168 17 0 C19.46484313 2.46484313 19.23481105 3.83580184 19.24884033 7.19882202 C19.24164978 7.92098907 19.23445923 8.64315613 19.22705078 9.38720703 C19.22734283 10.14827759 19.22763489 10.90934814 19.22793579 11.69348145 C19.22653981 14.21504016 19.21096618 16.73630525 19.1953125 19.2578125 C19.19158332 21.00373167 19.1887359 22.74965294 19.18673706 24.49557495 C19.17909311 29.0954972 19.15943813 33.69529357 19.1373291 38.29516602 C19.11688704 42.9871246 19.10773886 47.67910349 19.09765625 52.37109375 C19.07619292 61.58078454 19.04204783 70.79038181 19 80 C20.05501709 79.99476318 21.11003418 79.98952637 22.19702148 79.98413086 C26.0975663 79.96608099 29.9981074 79.95456805 33.89868164 79.94506836 C35.58944316 79.9400281 37.28020029 79.93319595 38.97094727 79.92456055 C41.39600707 79.91248143 43.82100944 79.90676877 46.24609375 79.90234375 C47.38672523 79.89460182 47.38672523 79.89460182 48.55039978 79.88670349 C50.3673257 79.88650762 52.18413127 79.93802723 54 80 C55 81 55 81 55.09765625 84.16015625 C55.08605469 85.44792969 55.07445312 86.73570312 55.0625 88.0625 C55.05347656 89.35285156 55.04445313 90.64320313 55.03515625 91.97265625 C55.02355469 92.97167969 55.01195312 93.97070312 55 95 C47.48863592 95.05057965 39.97731551 95.08568257 32.46582031 95.10986328 C29.90883747 95.11994038 27.35186621 95.13360226 24.79492188 95.15087891 C21.12627308 95.17505217 17.45777621 95.18646585 13.7890625 95.1953125 C12.0655809 95.21079636 12.0655809 95.21079636 10.30728149 95.22659302 C9.2463327 95.22674408 8.18538391 95.22689514 7.09228516 95.22705078 C5.68663803 95.23371262 5.68663803 95.23371262 4.25259399 95.24050903 C2 95 2 95 0 93 C-0.18831473 90.04725086 -0.25167271 87.18897147 -0.22705078 84.23583984 C-0.22734283 83.32846573 -0.22763489 82.42109161 -0.22793579 81.48622131 C-0.22653898 78.47769714 -0.21096128 75.46941858 -0.1953125 72.4609375 C-0.19158362 70.37871435 -0.18873606 68.29648945 -0.18673706 66.21426392 C-0.17909077 60.72659483 -0.15943375 55.23903116 -0.1373291 49.75140381 C-0.11689209 44.15459621 -0.10773994 38.55777163 -0.09765625 32.9609375 C-0.07618879 21.97391195 -0.04204086 10.98696473 0 0 Z " fill="#FAFAFB" transform="translate(318,456)"/>
<path d="M0 0 C2 2 2 2 2.1953125 5.2578125 C2.17210937 6.53398437 2.14890625 7.81015625 2.125 9.125 C2.10695313 10.40632813 2.08890625 11.68765625 2.0703125 13.0078125 C2.04710937 13.99523437 2.02390625 14.98265625 2 16 C1.32195313 16.02578125 0.64390625 16.0515625 -0.0546875 16.078125 C-7.42380427 16.52721245 -15.55270463 17.55270463 -21 23 C-21.32977606 25.01833943 -21.32977606 25.01833943 -21.31884766 27.35791016 C-21.33871735 28.25869293 -21.35858704 29.15947571 -21.37905884 30.08755493 C-21.39638565 31.54855118 -21.39638565 31.54855118 -21.4140625 33.0390625 C-21.43342865 34.03505463 -21.4527948 35.03104675 -21.4727478 36.05722046 C-21.53264965 39.2463925 -21.57897138 42.43560043 -21.625 45.625 C-21.66317001 47.78387013 -21.70222116 49.94272488 -21.7421875 52.1015625 C-21.8383597 57.40090534 -21.92337589 62.70034043 -22 68 C-24.64590014 68.02684679 -27.29153096 68.04676357 -29.9375 68.0625 C-30.69224609 68.07087891 -31.44699219 68.07925781 -32.22460938 68.08789062 C-34.14994313 68.09652441 -36.07535581 68.05224333 -38 68 C-39 67 -39 67 -39.12025452 64.41209412 C-39.11803391 63.25959671 -39.11581329 62.1070993 -39.11352539 60.91967773 C-39.11344986 59.61840439 -39.11337433 58.31713104 -39.11329651 56.97642517 C-39.10818909 55.54548098 -39.10297308 54.11453718 -39.09765625 52.68359375 C-39.09579203 51.2277074 -39.09436815 49.77182043 -39.09336853 48.31593323 C-39.08954365 44.47720621 -39.07971364 40.63851681 -39.06866455 36.79980469 C-39.05844978 32.88542184 -39.05387077 28.97103294 -39.04882812 25.05664062 C-39.03809134 17.37107657 -39.02101529 9.68554355 -39 2 C-36.54159395 1.97308315 -34.08348118 1.95320198 -31.625 1.9375 C-30.92632813 1.92912109 -30.22765625 1.92074219 -29.5078125 1.91210938 C-24.2265625 1.88671875 -24.2265625 1.88671875 -22 3 C-22 4.32 -22 5.64 -22 7 C-21.33613281 6.57847656 -20.67226563 6.15695312 -19.98828125 5.72265625 C-18.66376953 4.90087891 -18.66376953 4.90087891 -17.3125 4.0625 C-16.44238281 3.51722656 -15.57226562 2.97195313 -14.67578125 2.41015625 C-9.90626487 -0.1034137 -5.34211729 -0.302384 0 0 Z " fill="#FDFCFD" transform="translate(867,483)"/>
<path d="M0 0 C2.62527189 -0.05382106 5.24944713 -0.09358313 7.875 -0.125 C8.62136719 -0.14175781 9.36773437 -0.15851563 10.13671875 -0.17578125 C12.09194461 -0.1933959 14.04742021 -0.10320189 16 0 C18 2 18 2 18.24050903 4.67019653 C18.2338472 6.36896439 18.2338472 6.36896439 18.22705078 8.10205078 C18.22689972 9.38322784 18.22674866 10.66440491 18.22659302 11.98440552 C18.21637895 13.38804274 18.20594695 14.7916784 18.1953125 16.1953125 C18.19158291 17.62734785 18.18873569 19.05938575 18.18673706 20.49142456 C18.17909627 24.26278717 18.15944408 28.03399604 18.1373291 31.80529785 C18.11688019 35.65272949 18.1077374 39.50018594 18.09765625 43.34765625 C18.0761985 50.89850764 18.04205732 58.44923229 18 66 C15.18743719 66.02684312 12.37512759 66.04676188 9.5625 66.0625 C8.76005859 66.07087891 7.95761719 66.07925781 7.13085938 66.08789062 C5.08704779 66.0965143 3.04316098 66.0522815 1 66 C0 65 0 65 -0.12025452 62.41209412 C-0.11803391 61.25959671 -0.11581329 60.1070993 -0.11352539 58.91967773 C-0.11344986 57.61840439 -0.11337433 56.31713104 -0.11329651 54.97642517 C-0.10818909 53.54548098 -0.10297308 52.11453718 -0.09765625 50.68359375 C-0.09579203 49.2277074 -0.09436815 47.77182043 -0.09336853 46.31593323 C-0.08954365 42.47720621 -0.07971364 38.63851681 -0.06866455 34.79980469 C-0.05844978 30.88542184 -0.05387077 26.97103294 -0.04882812 23.05664062 C-0.03809134 15.37107657 -0.02101529 7.68554355 0 0 Z " fill="#F9F8F9" transform="translate(381,485)"/>
<path d="M0 0 C4.14030324 3.21084741 6.41047658 6.41892975 8.0625 11.375 C8.67720839 19.30574597 9.14627981 26.84341235 4.0625 33.375 C-0.71701228 38.03502447 -5.08054478 38.71469838 -11.546875 38.671875 C-15.63070732 38.16473242 -19.98413175 36.32836825 -22.9375 33.375 C-23.29974714 29.1751397 -23.37977022 24.96990759 -23.45239258 20.75683594 C-23.48398113 19.34231669 -23.53168641 17.92806029 -23.59594727 16.51464844 C-24.1184714 4.86358811 -24.1184714 4.86358811 -21.31225586 1.32641602 C-14.96172896 -2.89047819 -6.84449624 -3.48099916 0 0 Z " fill="#1A1733" transform="translate(654.9375,499.625)"/>
<path d="M0 0 C3.12492251 -0.05791844 6.24970766 -0.09356746 9.375 -0.125 C10.26445312 -0.14175781 11.15390625 -0.15851563 12.0703125 -0.17578125 C12.92109375 -0.18222656 13.771875 -0.18867188 14.6484375 -0.1953125 C15.82672119 -0.21102295 15.82672119 -0.21102295 17.02880859 -0.22705078 C19 0 19 0 21 2 C21.24840511 4.58010362 21.37408006 7.05912217 21.4140625 9.64453125 C21.43347397 10.43018967 21.45288544 11.21584808 21.47288513 12.02531433 C21.53373387 14.62093029 21.57976965 17.21656837 21.625 19.8125 C21.66294354 21.60482593 21.70127774 23.39714364 21.73999023 25.18945312 C22.10381407 43.12551894 22.09430376 61.06132876 22 79 C32.56 79 43.12 79 54 79 C54 79.33 54 79.66 54 80 C50.95853608 80.17135008 47.91692051 80.33711858 44.875 80.5 C43.62009766 80.57154297 43.62009766 80.57154297 42.33984375 80.64453125 C37.10227779 80.92019262 31.88638621 81.02447017 26.64111328 81.01367188 C25.39355255 81.011698 24.14599182 81.00972412 22.86062622 81.00769043 C21.91661957 81.00515259 20.97261292 81.00261475 20 81 C19.98969254 80.02503067 19.97938507 79.05006134 19.96876526 78.04554749 C19.87120055 68.87763686 19.76848298 59.70979667 19.66066074 50.54200077 C19.60538952 45.82823641 19.55196295 41.1144659 19.50268555 36.40063477 C19.45510376 31.85539096 19.40276346 27.31022504 19.34705925 22.76507378 C19.32660757 21.02707281 19.30789924 19.28905046 19.29092598 17.55101204 C19.26694396 15.12515623 19.2368814 12.69944899 19.20532227 10.27368164 C19.19668907 9.18503815 19.19668907 9.18503815 19.18788147 8.07440186 C19.4236013 4.75258984 19.4236013 4.75258984 18 2 C15.14122091 1.76298761 12.30116703 1.57780818 9.4375 1.4375 C8.63119141 1.39431641 7.82488281 1.35113281 6.99414062 1.30664062 C4.99631195 1.20024738 2.9981793 1.09959112 1 1 C1.10732545 13.10848176 1.21992243 25.21690174 1.33933926 37.32527065 C1.39461557 42.9470513 1.44804296 48.56883709 1.49731445 54.19067383 C1.54488872 59.61122899 1.59722874 65.0317187 1.65294075 70.45219612 C1.67339585 72.52513064 1.69210358 74.59808314 1.70907402 76.67104912 C1.73304846 79.56388758 1.76311213 82.45660109 1.79467773 85.34936523 C1.8004332 86.21538864 1.80618866 87.08141205 1.81211853 87.97367859 C1.48925199 91.79681743 1.48925199 91.79681743 3 95 C4.68709347 95.12299166 6.37920903 95.17785258 8.07055664 95.20532227 C9.15160172 95.22526749 10.23264679 95.24521271 11.34645081 95.26576233 C13.110485 95.29083107 13.110485 95.29083107 14.91015625 95.31640625 C16.70591347 95.3475779 16.70591347 95.3475779 18.53794861 95.37937927 C22.37940487 95.44500279 26.22093201 95.50381903 30.0625 95.5625 C32.65951267 95.60567305 35.25651806 95.64928693 37.85351562 95.69335938 C44.23560117 95.80069716 50.61775793 95.90243931 57 96 C56.67 96.66 56.34 97.32 56 98 C48.52529406 98.07601104 41.05068764 98.1285835 33.57568359 98.16479492 C31.03235143 98.17988936 28.48904533 98.20036688 25.94580078 98.22631836 C22.2919268 98.26267177 18.63839671 98.27971997 14.984375 98.29296875 C13.27637726 98.31619453 13.27637726 98.31619453 11.53387451 98.33988953 C10.47307678 98.34011612 9.41227905 98.34034271 8.31933594 98.34057617 C6.92035065 98.35056892 6.92035065 98.35056892 5.49310303 98.36076355 C2.30616191 97.89959842 1.08477343 97.49593922 -1 95 C-1.38592576 91.93160953 -1.51591166 89.22283254 -1.4699707 86.15405273 C-1.4721611 85.24974518 -1.4743515 84.34543762 -1.47660828 83.41372681 C-1.47892273 80.41997902 -1.45264633 77.42721069 -1.42578125 74.43359375 C-1.42085932 72.3575929 -1.41755916 70.28158762 -1.41581726 68.20558167 C-1.40817128 63.8534632 -1.3875911 59.5016729 -1.35668945 55.1496582 C-1.31708967 49.56171206 -1.29907763 43.97397954 -1.28938007 38.38590908 C-1.27942084 33.06844149 -1.2595183 27.75102649 -1.23828125 22.43359375 C-1.2348855 21.41369291 -1.23148975 20.39379208 -1.2279911 19.34298515 C-1.21645229 16.46744351 -1.19793739 13.59203943 -1.17700195 10.71655273 C-1.17431305 9.85883774 -1.17162415 9.00112274 -1.16885376 8.11741638 C-1.11490839 2.22981679 -1.11490839 2.22981679 0 0 Z " fill="#030413" transform="translate(317,455)"/>
<path d="M0 0 C3.40918784 2.12127244 5.78269305 4.12675063 7 8 C7.45071097 12.13151725 7.46635126 14.25050691 5.25 17.8125 C2.5715559 20.41654288 0.57328906 21.91690375 -3.21875 22.1171875 C-9.40604199 21.46031746 -9.40604199 21.46031746 -12.5 19.0625 C-14.92111125 15.73347204 -15.39335369 13.26523464 -15.35546875 9.10546875 C-14.72046773 5.34430885 -12.72377681 3.59708952 -10 1 C-6.39427296 -0.20190901 -3.7897565 -0.32670315 0 0 Z " fill="#F7F7F8" transform="translate(393,453)"/>
<path d="M0 0 C3.84107312 1.32450797 6.38526497 3.22662367 8.9375 6.4375 C10 9 10 9 10 14 C0.1 14 -9.8 14 -20 14 C-18.96196986 6.73378901 -18.69516143 5.50981001 -13.44921875 1.328125 C-9.0241347 -1.07144211 -4.85870255 -0.91236441 0 0 Z " fill="#191430" transform="translate(907,498)"/>
<path d="M0 0 C1.54300781 -0.02513672 1.54300781 -0.02513672 3.1171875 -0.05078125 C7.66431789 0.49841761 10.22985014 2.39248487 13.375 5.625 C15.125 8.3125 15.125 8.3125 16.125 14.3125 C6.225 14.3125 -3.675 14.3125 -13.875 14.3125 C-12.72721675 6.27801724 -12.72721675 6.27801724 -8.875 2.3125 C-5.45170149 0.03030099 -4.03362332 0.01508837 0 0 Z " fill="#1C1836" transform="translate(788.875,497.6875)"/>
<path d="M0 0 C1.08087891 -0.03673828 1.08087891 -0.03673828 2.18359375 -0.07421875 C5.33180155 -0.09161216 7.63112248 0.07126805 10.33935547 1.73681641 C13.17608771 5.92791958 12.61689125 10.10537816 12.515625 15.046875 C12.50996521 16.08442932 12.50430542 17.12198364 12.49847412 18.190979 C12.47609491 21.50278992 12.42589419 24.81351644 12.375 28.125 C12.35493706 30.37107812 12.33668594 32.61717321 12.3203125 34.86328125 C12.27622518 40.36755709 12.20929741 45.87120107 12.125 51.375 C11.465 51.045 10.805 50.715 10.125 50.375 C10.11469254 49.80092911 10.10438507 49.22685822 10.09376526 48.63539124 C9.98592566 42.68234338 9.87131023 36.72945385 9.75268555 30.77661133 C9.70926412 28.55236104 9.66759455 26.32807585 9.62768555 24.10375977 C9.57015694 20.91411805 9.50641316 17.7246532 9.44140625 14.53515625 C9.42469376 13.53412369 9.40798126 12.53309113 9.39076233 11.50172424 C9.37081711 10.58084518 9.35087189 9.65996613 9.33032227 8.71118164 C9.30700584 7.48873497 9.30700584 7.48873497 9.28321838 6.24159241 C9.32586137 4.36090881 9.32586137 4.36090881 8.125 3.375 C5.43264224 3.13821284 2.76001844 2.95301975 0.0625 2.8125 C-0.69611328 2.76931641 -1.45472656 2.72613281 -2.23632812 2.68164062 C-4.11565438 2.57526367 -5.99530244 2.47460066 -7.875 2.375 C-7.79075708 14.72702675 -7.69593689 27.07892211 -7.58747292 39.43076134 C-7.53744839 45.16573017 -7.49111904 50.90068003 -7.453125 56.63574219 C-7.41634981 62.16657631 -7.37001136 67.69725397 -7.31693649 73.22795486 C-7.29835112 75.34191783 -7.28325862 77.45591439 -7.27165604 79.56992722 C-7.25486426 82.52253114 -7.22584682 85.47477345 -7.19384766 88.42724609 C-7.19168747 89.3083757 -7.18952728 90.18950531 -7.18730164 91.09733582 C-7.33503102 95.71576635 -7.33503102 95.71576635 -4.875 99.375 C-2.50990639 99.67559943 -0.13058119 99.87015012 2.25 100 C3.53132813 100.07476563 4.81265625 100.14953125 6.1328125 100.2265625 C7.61394531 100.30003906 7.61394531 100.30003906 9.125 100.375 C9.125 100.705 9.125 101.035 9.125 101.375 C6.7071288 101.48326289 4.29412444 101.56239789 1.875 101.625 C1.19308594 101.65851563 0.51117188 101.69203125 -0.19140625 101.7265625 C-3.32850757 101.78747709 -5.42709104 101.6709353 -8.0741272 99.92202759 C-10.75600922 96.12896264 -10.41944902 92.77296344 -10.36083984 88.23193359 C-10.36463654 87.30797287 -10.36843323 86.38401215 -10.37234497 85.43205261 C-10.37975304 82.37883536 -10.35836732 79.32657012 -10.3359375 76.2734375 C-10.33355353 74.15402336 -10.33264765 72.03460707 -10.3331604 69.91519165 C-10.33003214 65.47490194 -10.31346223 61.03493507 -10.28662109 56.59472656 C-10.25259991 50.89352945 -10.24499365 45.1926865 -10.24651146 39.49139977 C-10.24596859 35.11632892 -10.23501551 30.74133602 -10.22050858 26.36629105 C-10.21413013 24.26347061 -10.21019924 22.16064132 -10.20872116 20.05781174 C-10.20440161 17.12481261 -10.18693093 14.19219498 -10.16552734 11.25927734 C-10.16643372 10.38443192 -10.16734009 9.50958649 -10.16827393 8.60823059 C-10.07956963 0.32726079 -7.58494207 0.01342468 0 0 Z " fill="#020211" transform="translate(487.875,451.625)"/>
<path d="M0 0 C0.66 0.33 1.32 0.66 2 1 C2.02526787 8.10244999 2.04283201 15.20488848 2.05493164 22.30737305 C2.05997349 24.72567172 2.06680678 27.14396733 2.07543945 29.56225586 C2.08751157 33.02979283 2.09322963 36.49728966 2.09765625 39.96484375 C2.10281754 41.05337143 2.10797882 42.14189911 2.11329651 43.26341248 C2.11340981 44.76485558 2.11340981 44.76485558 2.11352539 46.29663086 C2.115746 47.18265488 2.11796661 48.06867889 2.12025452 48.98155212 C2 51 2 51 1 52 C-1.62051074 52.18062277 -4.18960526 52.27807881 -6.8125 52.3125 C-7.53759766 52.34150391 -8.26269531 52.37050781 -9.00976562 52.40039062 C-12.24193126 52.43883358 -14.48819569 52.33919226 -17.21655273 50.53100586 C-19.85145827 46.79164026 -19.50139693 43.54455744 -19.390625 39.078125 C-19.38496521 38.21813904 -19.37930542 37.35815308 -19.37347412 36.47210693 C-19.35111951 33.73083351 -19.30092602 30.99087696 -19.25 28.25 C-19.22993376 26.38934182 -19.21168321 24.52866311 -19.1953125 22.66796875 C-19.15125784 18.11147334 -19.08223754 13.55595978 -19 9 C-18.34 9 -17.68 9 -17 9 C-16.96241577 10.76428345 -16.96241577 10.76428345 -16.92407227 12.56420898 C-16.83017194 16.91214622 -16.72990952 21.25991716 -16.62768555 25.60766602 C-16.58427067 27.49239218 -16.54260057 29.37715936 -16.50268555 31.26196289 C-16.44514107 33.96513249 -16.38140196 36.66809436 -16.31640625 39.37109375 C-16.29969376 40.21900986 -16.28298126 41.06692596 -16.26576233 41.9405365 C-16.53590805 45.78292076 -16.53590805 45.78292076 -15 49 C-9.72 49.33 -4.44 49.66 1 50 C0.67 33.5 0.34 17 0 0 Z " fill="#060716" transform="translate(471,501)"/>
<path d="M0 0 C0.33 0 0.66 0 1 0 C1.02505615 0.84296631 1.0501123 1.68593262 1.07592773 2.55444336 C1.17088155 5.67241674 1.27012448 8.79021503 1.37231445 11.90795898 C1.41571223 13.25914147 1.4573837 14.61038053 1.49731445 15.96166992 C1.55489952 17.90036701 1.61914298 19.83886276 1.68359375 21.77734375 C1.72025146 22.94515381 1.75690918 24.11296387 1.79467773 25.31616211 C1.70076188 27.91779795 1.70076188 27.91779795 3 29 C4.68709347 29.12299166 6.37920903 29.17785258 8.07055664 29.20532227 C9.15160172 29.22526749 10.23264679 29.24521271 11.34645081 29.26576233 C13.110485 29.29083107 13.110485 29.29083107 14.91015625 29.31640625 C16.70591347 29.3475779 16.70591347 29.3475779 18.53794861 29.37937927 C22.37940487 29.44500279 26.22093201 29.50381903 30.0625 29.5625 C32.65951267 29.60567305 35.25651806 29.64928693 37.85351562 29.69335938 C44.23560117 29.80069716 50.61775793 29.90243931 57 30 C56.67 30.66 56.34 31.32 56 32 C48.52529406 32.07601104 41.05068764 32.1285835 33.57568359 32.16479492 C31.03235143 32.17988936 28.48904533 32.20036688 25.94580078 32.22631836 C22.2919268 32.26267177 18.63839671 32.27971997 14.984375 32.29296875 C13.27637726 32.31619453 13.27637726 32.31619453 11.53387451 32.33988953 C10.47307678 32.34011612 9.41227905 32.34034271 8.31933594 32.34057617 C6.92035065 32.35056892 6.92035065 32.35056892 5.49310303 32.36076355 C2.51464493 31.92976688 1.14729839 31.08311635 -1 29 C-1.4699707 26.3203125 -1.4699707 26.3203125 -1.42578125 23.125 C-1.41740234 21.97515625 -1.40902344 20.8253125 -1.40039062 19.640625 C-1.37138672 18.43921875 -1.34238281 17.2378125 -1.3125 16 C-1.30283203 14.79859375 -1.29316406 13.5971875 -1.28320312 12.359375 C-1.16907799 3.50723397 -1.16907799 3.50723397 0 0 Z " fill="#06091D" transform="translate(317,521)"/>
<path d="M0 0 C0.33 0 0.66 0 1 0 C1.00586624 1.17097733 1.01173248 2.34195465 1.01777649 3.54841614 C1.07492597 14.5700104 1.14764664 25.59140587 1.23571491 36.61279774 C1.28049135 42.27936705 1.31973138 47.94586325 1.34643555 53.61254883 C1.372396 59.07860351 1.4127467 64.54437792 1.46318626 70.01025963 C1.4799042 72.09826872 1.49138769 74.18632634 1.49761391 76.27439308 C1.5072015 79.19340197 1.53519638 82.1116858 1.56762695 85.03051758 C1.56619186 85.89870117 1.56475677 86.76688477 1.5632782 87.66137695 C1.5020289 91.96619462 1.5020289 91.96619462 3.31520367 95.71360302 C6.04286351 97.79626032 8.82630441 97.53331672 12.1875 97.6875 C13.45980469 97.75324219 14.73210937 97.81898438 16.04296875 97.88671875 C17.01878906 97.92410156 17.99460937 97.96148438 19 98 C19 98.33 19 98.66 19 99 C16.5821288 99.10826289 14.16912444 99.18739789 11.75 99.25 C11.06808594 99.28351563 10.38617188 99.31703125 9.68359375 99.3515625 C6.54711845 99.41246493 4.44702446 99.29468187 1.79888916 97.54901123 C-0.8858999 93.74468709 -0.52898013 90.37556259 -0.45410156 85.82519531 C-0.45468567 84.898022 -0.45526978 83.97084869 -0.45587158 83.01557922 C-0.45308614 79.95271288 -0.42197199 76.89082121 -0.390625 73.828125 C-0.38316426 71.70392387 -0.37747054 69.57971585 -0.37347412 67.45550537 C-0.35820474 61.86579369 -0.31891132 56.27649804 -0.2746582 50.68695068 C-0.23373385 44.98276396 -0.21546914 39.27850998 -0.1953125 33.57421875 C-0.15241863 22.38262976 -0.08415122 11.19134948 0 0 Z " fill="#070921" transform="translate(478,454)"/>
<path d="M0 0 C0.99 0.33 1.98 0.66 3 1 C2.50628906 1.39832031 2.01257813 1.79664063 1.50390625 2.20703125 C0.86324219 2.73683594 0.22257813 3.26664062 -0.4375 3.8125 C-1.07558594 4.33457031 -1.71367188 4.85664063 -2.37109375 5.39453125 C-4.2548275 7.00834411 -4.2548275 7.00834411 -5 10 C3.25 10.33 11.5 10.66 20 11 C18.17355948 5.40467777 18.17355948 5.40467777 15 1 C19.21543758 2.50551342 20.86049125 5.17944866 23 9 C23 10.32 23 11.64 23 13 C13.1 13 3.2 13 -7 13 C-5.85279188 4.96954315 -5.85279188 4.96954315 -2 1 C-1.34 0.67 -0.68 0.34 0 0 Z " fill="#020108" transform="translate(782,499)"/>
<path d="M0 0 C2.14677448 0.95789621 4.22468585 1.9641048 6.28125 3.1015625 C5.95125 3.7615625 5.62125 4.4215625 5.28125 5.1015625 C4.188125 4.6065625 3.095 4.1115625 1.96875 3.6015625 C-4.27354155 1.28014091 -10.76985253 0.77166756 -16.90625 3.5390625 C-19.58437384 7.32537552 -19.09021403 10.61922984 -18.71875 15.1015625 C-18.71875 16.0915625 -18.71875 17.0815625 -18.71875 18.1015625 C-20.67901975 16.46887098 -21.6252555 15.55134685 -22.15234375 13.015625 C-22.15919416 9.00128255 -22.06597835 6.68441008 -19.96875 3.1640625 C-14.3183534 -2.01546772 -7.16738496 -2.36853239 0 0 Z " fill="#0F0F22" transform="translate(582.71875,470.8984375)"/>
<path d="M0 0 C0.66 0 1.32 0 2 0 C3.44962183 2.89924366 3.22126481 5.52300355 3.31640625 8.7578125 C3.33718735 9.42086395 3.35796844 10.08391541 3.37937927 10.76705933 C3.44479231 12.88626694 3.50372105 15.005599 3.5625 17.125 C3.60569309 18.56121081 3.64930764 19.99740902 3.69335938 21.43359375 C3.80046499 24.95559594 3.90175575 28.47773825 4 32 C5.32 31.67 6.64 31.34 8 31 C6.37660195 32.70884005 4.70680947 34.37446717 3 36 C2.34 36 1.68 36 1 36 C0.67 24.12 0.34 12.24 0 0 Z " fill="#05051D" transform="translate(704,454)"/>
<path d="M0 0 C0.66 0 1.32 0 2 0 C3.5078125 2.1875 3.5078125 2.1875 5.125 5 C5.66382813 5.928125 6.20265625 6.85625 6.7578125 7.8125 C7.37269531 8.8953125 7.37269531 8.8953125 8 10 C7.01 10.495 7.01 10.495 6 11 C5.01 9.35 4.02 7.7 3 6 C2.98018066 6.59538574 2.96036133 7.19077148 2.93994141 7.80419922 C2.84483874 10.49492153 2.73510158 13.18485148 2.625 15.875 C2.5940625 16.81214844 2.563125 17.74929688 2.53125 18.71484375 C2.49257813 19.61074219 2.45390625 20.50664063 2.4140625 21.4296875 C2.3826416 22.25710449 2.3512207 23.08452148 2.31884766 23.93701172 C2 26 2 26 0 28 C0 18.76 0 9.52 0 0 Z " fill="#050616" transform="translate(498,524)"/>
<path d="M0 0 C0.99 0.33 1.98 0.66 3 1 C2.319375 1.6084375 1.63875 2.216875 0.9375 2.84375 C-8.00900175 10.9336718 -16.52506324 19.4198549 -25 28 C-25 25 -25 25 -22.70507812 22.36450195 C-21.6548023 21.3147016 -20.59625766 20.27313331 -19.53125 19.23828125 C-18.97634888 18.68762497 -18.42144775 18.13696869 -17.84973145 17.56962585 C-16.07339313 15.81009875 -14.2869152 14.06127835 -12.5 12.3125 C-11.29489115 11.12243479 -10.09045517 9.93168777 -8.88671875 8.74023438 C-5.93223292 5.81885021 -2.96861031 2.90702744 0 0 Z " fill="#03040F" transform="translate(220,513)"/>
<path d="M0 0 C3.34252168 1.67126084 4.3140976 5.36973514 5.875 8.625 C8.41353215 13.86615192 11.05741648 18.97253667 14 24 C13.01 24 12.02 24 11 24 C9.53779721 21.43964079 8.08014847 18.8768644 6.625 16.3125 C6.2125 15.59126953 5.8 14.87003906 5.375 14.12695312 C0 4.63400958 0 4.63400958 0 0 Z " fill="#0D0F1E" transform="translate(93,543)"/>
<path d="M0 0 C4.20763224 1.5027258 5.8027758 4.23332995 8 8 C8 8.66 8 9.32 8 10 C5.23382437 11.38308781 2.98982 11.11210196 -0.1015625 11.09765625 C-1.31328125 11.09443359 -2.525 11.09121094 -3.7734375 11.08789062 C-5.04445313 11.07951172 -6.31546875 11.07113281 -7.625 11.0625 C-8.90375 11.05798828 -10.1825 11.05347656 -11.5 11.04882812 C-14.66671292 11.03701203 -17.83333356 11.02053815 -21 11 C-21 10.67 -21 10.34 -21 10 C-12.42 10 -3.84 10 5 10 C3.17355948 4.40467777 3.17355948 4.40467777 0 0 Z " fill="#0A0922" transform="translate(797,500)"/>
<path d="M0 0 C4.88765533 1.35768204 6.52591098 3.67034421 9 8 C10.00496852 11.01490557 10.10335303 13.04181692 10.0625 16.1875 C10.05347656 17.08855469 10.04445313 17.98960937 10.03515625 18.91796875 C10.02355469 19.60503906 10.01195312 20.29210937 10 21 C9.34 20.67 8.68 20.34 8 20 C7.7265625 17.92578125 7.7265625 17.92578125 7.625 15.3125 C7.24097324 10.50530793 6.08249836 7.80779209 3 4 C2.4225 3.21625 1.845 2.4325 1.25 1.625 C0.8375 1.08875 0.425 0.5525 0 0 Z " fill="#111122" transform="translate(653,500)"/>
<path d="M0 0 C0.66 0.33 1.32 0.66 2 1 C0.77023438 2.32064453 0.77023438 2.32064453 -0.484375 3.66796875 C-1.57300622 4.84106274 -2.66154288 6.01424448 -3.75 7.1875 C-4.28882813 7.76564453 -4.82765625 8.34378906 -5.3828125 8.93945312 C-8.39798091 12.19362878 -11.27781799 15.49155668 -14 19 C-13.61848881 13.96591331 -10.92870715 11.27280697 -7.5625 7.8125 C-6.80743164 7.01295898 -6.80743164 7.01295898 -6.03710938 6.19726562 C-4.0531432 4.10263998 -2.04001903 2.04001903 0 0 Z " fill="#070915" transform="translate(133,448)"/>
<path d="M0 0 C-2.58010196 1.48505869 -5.16377559 2.96317311 -7.75 4.4375 C-8.47960937 4.85837891 -9.20921875 5.27925781 -9.9609375 5.71289062 C-10.66992188 6.11572266 -11.37890625 6.51855469 -12.109375 6.93359375 C-12.75874023 7.30540771 -13.40810547 7.67722168 -14.07714844 8.06030273 C-16.03827134 9.0187032 -17.86964435 9.5503043 -20 10 C-17.47945145 7.29941227 -15.30728879 5.59662217 -12 4 C-11.67 3.34 -11.34 2.68 -11 2 C-9.00390625 1.11328125 -9.00390625 1.11328125 -6.5625 0.3125 C-5.35787109 -0.09548828 -5.35787109 -0.09548828 -4.12890625 -0.51171875 C-2 -1 -2 -1 0 0 Z " fill="#0B0E1C" transform="translate(149,415)"/>
<path d="M0 0 C0.6875 1.8125 0.6875 1.8125 1 4 C-0.3125 5.75 -0.3125 5.75 -2 7 C-2.66 7 -3.32 7 -4 7 C-4.33 7.99 -4.66 8.98 -5 10 C-6.65 10.33 -8.3 10.66 -10 11 C-6.79239749 7.19364503 -3.59253891 3.45436433 0 0 Z " fill="#17162A" transform="translate(675,539)"/>
<path d="M0 0 C0.8353125 1.1446875 0.8353125 1.1446875 1.6875 2.3125 C3.97242645 4.96795507 6.0135612 6.2579107 9 8 C9 8.66 9 9.32 9 10 C9.99 10 10.98 10 12 10 C12 10.66 12 11.32 12 12 C7.59061785 11.49607061 5.21156184 10.0379639 2 7 C0.29194726 4.31591712 0 3.23830467 0 0 Z " fill="#171628" transform="translate(775,526)"/>
<path d="M0 0 C0.75 1.6875 0.75 1.6875 1 4 C-0.5625 6.6875 -0.5625 6.6875 -3 9 C-6.25 9.8125 -6.25 9.8125 -9 10 C-8.06409496 8.8944811 -7.12620142 7.79064547 -6.1875 6.6875 C-5.66542969 6.07261719 -5.14335937 5.45773437 -4.60546875 4.82421875 C-3.12827531 3.14575321 -1.59960869 1.56117966 0 0 Z " fill="#1E2233" transform="translate(231,502)"/>
<path d="M0 0 C0.763125 0.309375 1.52625 0.61875 2.3125 0.9375 C4.18789677 1.67893593 6.08684652 2.36228217 8 3 C9.03013277 4.64821244 10.03114628 6.31503702 11 8 C11.66 8.33 12.32 8.66 13 9 C13.625 11.5625 13.625 11.5625 14 14 C13.34 14 12.68 14 12 14 C10.703125 12.42578125 10.703125 12.42578125 9.25 10.3125 C6.51768254 6.51686688 3.66244197 3.87763298 0 1 C0 0.67 0 0.34 0 0 Z " fill="#0F0E21" transform="translate(664,486)"/>
<path d="M0 0 C5.94 2.31 11.88 4.62 18 7 C13.60147743 8.09963064 12.51793886 7.75860775 8.4375 6.1875 C7.48746094 5.83042969 6.53742188 5.47335937 5.55859375 5.10546875 C3 4 3 4 0 2 C0 1.34 0 0.68 0 0 Z " fill="#090A19" transform="translate(137,594)"/>
<path d="M0 0 C-4.66727239 2.63282032 -9.61076854 4.6227538 -15 5 C-15.66 4.34 -16.32 3.68 -17 3 C-14.92085336 2.29994051 -12.83648414 1.61537756 -10.75 0.9375 C-9.58984375 0.55464844 -8.4296875 0.17179688 -7.234375 -0.22265625 C-4.19922915 -0.95211763 -2.84296787 -1.11889082 0 0 Z " fill="#0C0F1D" transform="translate(223,599)"/>
<path d="M0 0 C1.09658936 3.28976808 0.79953138 4.71303767 0 8 C-0.99 8.33 -1.98 8.66 -3 9 C-4.37195574 10.29355827 -5.71182656 11.62298702 -7 13 C-6.36610765 9.50155614 -4.94822306 7.15913124 -2.9375 4.25 C-2.38964844 3.45078125 -1.84179688 2.6515625 -1.27734375 1.828125 C-0.85582031 1.22484375 -0.43429687 0.6215625 0 0 Z " fill="#101023" transform="translate(535,485)"/>
<path d="M0 0 C0.66 0 1.32 0 2 0 C3.7265625 2.30078125 3.7265625 2.30078125 5.625 5.3125 C6.25664063 6.29863281 6.88828125 7.28476562 7.5390625 8.30078125 C9 11 9 11 9 14 C0 3.89320388 0 3.89320388 0 0 Z " fill="#090B17" transform="translate(118,549)"/>
<path d="M0 0 C1.58294782 -0.05437607 3.16644256 -0.09296271 4.75 -0.125 C5.63171875 -0.14820313 6.5134375 -0.17140625 7.421875 -0.1953125 C10.1135858 0.00860498 11.69904974 0.63448279 14 2 C11.11584117 3.44207941 8.58278472 3.09394887 5.375 3.0625 C4.18648437 3.05347656 2.99796875 3.04445313 1.7734375 3.03515625 C0.85820312 3.02355469 -0.05703125 3.01195312 -1 3 C-0.67 2.01 -0.34 1.02 0 0 Z " fill="#0C0F1F" transform="translate(205,466)"/>
<path d="M0 0 C0.33 1.32 0.66 2.64 1 4 C-1.97 6.475 -1.97 6.475 -5 9 C-5.66 8.34 -6.32 7.68 -7 7 C-4.69 4.69 -2.38 2.38 0 0 Z " fill="#232637" transform="translate(191,541)"/>
<path d="M0 0 C0.66 0.99 1.32 1.98 2 3 C0.25 5.0625 0.25 5.0625 -2 7 C-3.32 6.67 -4.64 6.34 -6 6 C-4.02 4.02 -2.04 2.04 0 0 Z " fill="#1F2434" transform="translate(159,509)"/>
<path d="M0 0 C-1.11666174 3.34998521 -1.74694925 3.79340222 -4.5625 5.6875 C-5.20316406 6.12449219 -5.84382812 6.56148438 -6.50390625 7.01171875 C-6.99761719 7.33785156 -7.49132812 7.66398437 -8 8 C-8 5 -8 5 -5.6875 2.3125 C-3 0 -3 0 0 0 Z " fill="#0F1324" transform="translate(194,478)"/>
<path d="M0 0 C-1.5830577 4.2742558 -4.50568404 6.26531794 -8 9 C-8 6 -8 6 -6.7578125 4.39453125 C-5.94957031 3.61142578 -5.94957031 3.61142578 -5.125 2.8125 C-4.59132812 2.28269531 -4.05765625 1.75289063 -3.5078125 1.20703125 C-2 0 -2 0 0 0 Z " fill="#232633" transform="translate(172,471)"/>
<path d="M0 0 C0.66 0 1.32 0 2 0 C3.54296875 1.86328125 3.54296875 1.86328125 5.1875 4.3125 C5.73792969 5.11300781 6.28835938 5.91351563 6.85546875 6.73828125 C7.23316406 7.48464844 7.61085938 8.23101562 8 9 C7.67 9.99 7.34 10.98 7 12 C5.82767315 10.3790787 4.6622923 8.75313167 3.5 7.125 C2.8503125 6.22007812 2.200625 5.31515625 1.53125 4.3828125 C0 2 0 2 0 0 Z " fill="#090C1A" transform="translate(261,443)"/>
<path d="M0 0 C0.33 0 0.66 0 1 0 C1.66 2.97 2.32 5.94 3 9 C1.68 8.34 0.36 7.68 -1 7 C-0.67 4.69 -0.34 2.38 0 0 Z " fill="#0B0D20" transform="translate(317,543)"/>
<path d="M0 0 C0.66 0.33 1.32 0.66 2 1 C-0.31 3.64 -2.62 6.28 -5 9 C-5.33 8.01 -5.66 7.02 -6 6 C-4.02 4.02 -2.04 2.04 0 0 Z " fill="#050514" transform="translate(602,469)"/>
<path d="M0 0 C0.66 0.33 1.32 0.66 2 1 C-0.97 4.96 -0.97 4.96 -4 9 C-4.33 8.01 -4.66 7.02 -5 6 C-3.59554165 3.7363436 -1.8032087 1.9791315 0 0 Z " fill="#080A18" transform="translate(225,459)"/>
<path d="M0 0 C4.40114397 0.50298788 6.71195019 2.08772731 10 5 C6.05140217 4.4359146 3.29120954 3.2568294 0 1 C0 0.67 0 0.34 0 0 Z " fill="#070A19" transform="translate(226,416)"/>
<path d="M0 0 C0.99 0.33 1.98 0.66 3 1 C0.69 2.65 -1.62 4.3 -4 6 C-4 5.01 -4 4.02 -4 3 C-2.1875 1.25 -2.1875 1.25 0 0 Z " fill="#0E0D20" transform="translate(782,499)"/>
</svg>
